<svg viewBox="0 0 68 85" fill="none" xmlns="http://www.w3.org/2000/svg">
<path d="M37.0602 7.65182C50.1098 7.65182 60.6034 19.6652 60.6034 34.4332C60.6034 45.1457 55.1212 54.2896 47.1501 58.5747V76.5182H23.607V65.0405H20.2436C16.5104 65.0405 13.517 61.6354 13.517 57.3886V45.9109H8.47205C7.05946 45.9109 6.25226 43.998 7.05946 42.8119L13.517 33.1324C13.8133 26.2583 16.4237 19.7776 20.8069 15.0337C25.1901 10.2898 31.0101 7.64651 37.0602 7.65182ZM28.0465 24.4476H34.5377C34.5713 23.2998 34.874 22.4198 35.4794 21.8077C36.1022 21.2202 36.8903 20.9078 37.6992 20.9277C38.7419 20.9277 39.6163 21.3103 40.2217 21.999C40.8271 22.7259 41.0962 23.7206 41.0962 24.8684C41.0962 26.0927 40.8607 27.1257 40.3226 28.0057C39.8517 28.8856 39.1455 29.6508 38.271 30.2629C36.5557 31.5637 35.3785 32.7115 34.7395 33.7445C34.0669 34.7393 33.6969 36.3461 33.6969 38.2591H40.4235C40.4235 37.0731 40.558 36.1166 40.8607 35.4279C41.1634 34.701 41.7352 34.0506 42.576 33.4384C44.0895 32.5202 45.3339 31.4107 46.3093 29.8804C47.2847 28.35 47.7892 26.7814 47.7892 24.8684C47.7892 21.9607 46.8811 19.6269 45.0649 17.9053C43.2823 16.1836 40.8271 15.3036 37.6992 15.3036C34.7731 15.3036 32.4188 16.0688 30.6026 17.5609C28.8537 19.1295 27.9793 21.3103 28.0129 24.3328L28.0465 24.4476ZM33.6969 49.7368H40.4235V42.085H33.6969V49.7368ZM37.0602 0C21.6226 0 8.84201 13.0846 6.99219 30.2247L1.74543 38.2591H1.64453L1.57726 38.3739C-0.272559 41.2816 -0.507991 45.1075 0.938233 48.283C2.14902 50.9228 4.30154 52.7593 6.79039 53.3332V57.3886C6.79039 64.4666 11.0954 70.4732 16.8803 72.1949V84.17H53.8768V63.1275C62.285 56.7382 67.33 46.1405 67.33 34.4332C67.33 15.4184 53.7422 0 37.0602 0Z" fill="currentColor"/>
</svg>
