<svg viewBox="0 0 20 20" xmlns="http://www.w3.org/2000/svg">
<path d="M7.5 3.5H4C3.725 3.5 3.5 3.725 3.5 4V16C3.5 16.275 3.725 16.5 4 16.5H6.5V18H4C2.89688 18 2 17.1031 2 16V4C2 2.89688 2.89688 2 4 2H8.17188C8.70312 2 9.2125 2.20937 9.5875 2.58437L13.4156 6.41563C13.7906 6.79063 14 7.3 14 7.83125V12.5031H12.5V8.50313H9.75C8.50625 8.50313 7.5 7.49688 7.5 6.25313V3.50312V3.5ZM11.8781 7L9 4.12187V6.25C9 6.66563 9.33437 7 9.75 7H11.8781ZM8.5 13.875H9.5C10.5344 13.875 11.375 14.7156 11.375 15.75C11.375 16.7844 10.5344 17.625 9.5 17.625H9.125V18.5C9.125 18.8438 8.84375 19.125 8.5 19.125C8.15625 19.125 7.875 18.8438 7.875 18.5V14.5C7.875 14.1562 8.15625 13.875 8.5 13.875ZM9.5 16.375C9.84375 16.375 10.125 16.0938 10.125 15.75C10.125 15.4062 9.84375 15.125 9.5 15.125H9.125V16.375H9.5ZM12.5 13.875H13.5C14.3969 13.875 15.125 14.6031 15.125 15.5V17.5C15.125 18.3969 14.3969 19.125 13.5 19.125H12.5C12.1562 19.125 11.875 18.8438 11.875 18.5V14.5C11.875 14.1562 12.1562 13.875 12.5 13.875ZM13.5 17.875C13.7063 17.875 13.875 17.7063 13.875 17.5V15.5C13.875 15.2937 13.7063 15.125 13.5 15.125H13.125V17.875H13.5ZM15.875 14.5C15.875 14.1562 16.1562 13.875 16.5 13.875H18C18.3438 13.875 18.625 14.1562 18.625 14.5C18.625 14.8438 18.3438 15.125 18 15.125H17.125V15.875H18C18.3438 15.875 18.625 16.1562 18.625 16.5C18.625 16.8438 18.3438 17.125 18 17.125H17.125V18.5C17.125 18.8438 16.8438 19.125 16.5 19.125C16.1562 19.125 15.875 18.8438 15.875 18.5V14.5Z" fill="currentColor"/>
</svg>
