<svg viewBox="0 0 68 85" fill="none" xmlns="http://www.w3.org/2000/svg">
<path d="M0 8.41667C0 6.18443 0.886753 4.04362 2.46518 2.46518C4.04362 0.886753 6.18443 0 8.41667 0H42.0833C43.1994 0.000238349 44.2696 0.443771 45.0586 1.23304L66.1003 22.2747C66.8896 23.0637 67.3331 24.134 67.3333 25.25V75.75C67.3333 77.9822 66.4466 80.1231 64.8681 81.7015C63.2897 83.2799 61.1489 84.1667 58.9167 84.1667H8.41667C6.18443 84.1667 4.04362 83.2799 2.46518 81.7015C0.886753 80.1231 0 77.9822 0 75.75V8.41667ZM57.1744 25.25L42.0833 10.1589V25.25H57.1744ZM33.6667 8.41667H8.41667V75.75H58.9167V33.6667H37.875C36.7589 33.6667 35.6885 33.2233 34.8993 32.4341C34.11 31.6449 33.6667 30.5745 33.6667 29.4583V8.41667ZM16.8333 46.2917C16.8333 45.1755 17.2767 44.1051 18.0659 43.3159C18.8551 42.5267 19.9255 42.0833 21.0417 42.0833H46.2917C47.4078 42.0833 48.4782 42.5267 49.2674 43.3159C50.0566 44.1051 50.5 45.1755 50.5 46.2917C50.5 47.4078 50.0566 48.4782 49.2674 49.2674C48.4782 50.0566 47.4078 50.5 46.2917 50.5H21.0417C19.9255 50.5 18.8551 50.0566 18.0659 49.2674C17.2767 48.4782 16.8333 47.4078 16.8333 46.2917ZM16.8333 63.125C16.8333 62.0089 17.2767 60.9385 18.0659 60.1493C18.8551 59.36 19.9255 58.9167 21.0417 58.9167H46.2917C47.4078 58.9167 48.4782 59.36 49.2674 60.1493C50.0566 60.9385 50.5 62.0089 50.5 63.125C50.5 64.2411 50.0566 65.3115 49.2674 66.1007C48.4782 66.89 47.4078 67.3333 46.2917 67.3333H21.0417C19.9255 67.3333 18.8551 66.89 18.0659 66.1007C17.2767 65.3115 16.8333 64.2411 16.8333 63.125Z" fill="currentColor"/>
</svg>
