<svg viewBox="0 0 12 12" fill="none" xmlns="http://www.w3.org/2000/svg">
<path d="M10.8024 8.16667L9.10912 7.97334C8.91001 7.94995 8.70819 7.97199 8.51882 8.03781C8.32946 8.10363 8.15747 8.2115 8.01578 8.35334L6.78912 9.58C4.89671 8.61729 3.35849 7.07907 2.39578 5.18667L3.62912 3.95333C3.91578 3.66667 4.05578 3.26667 4.00912 2.86L3.81578 1.18C3.77813 0.854728 3.62209 0.554684 3.37742 0.337064C3.13276 0.119444 2.81656 -0.000533381 2.48912 1.78264e-06H1.33578C0.582449 1.78264e-06 -0.0442177 0.626668 0.00244898 1.38C0.355782 7.07334 4.90912 11.62 10.5958 11.9733C11.3491 12.02 11.9758 11.3933 11.9758 10.64V9.48667C11.9824 8.81334 11.4758 8.24667 10.8024 8.16667Z" fill="currentColor"/>
</svg>
