<svg viewBox="0 0 25 25" fill="none" xmlns="http://www.w3.org/2000/svg">
<path d="M11.25 20H13.75V17.5H11.25V20ZM12.5 0C5.6 0 0 5.6 0 12.5C0 19.4 5.6 25 12.5 25C19.4 25 25 19.4 25 12.5C25 5.6 19.4 0 12.5 0ZM12.5 22.5C6.9875 22.5 2.5 18.0125 2.5 12.5C2.5 6.9875 6.9875 2.5 12.5 2.5C18.0125 2.5 22.5 6.9875 22.5 12.5C22.5 18.0125 18.0125 22.5 12.5 22.5ZM12.5 5C9.7375 5 7.5 7.2375 7.5 10H10C10 8.625 11.125 7.5 12.5 7.5C13.875 7.5 15 8.625 15 10C15 12.5 11.25 12.1875 11.25 16.25H13.75C13.75 13.4375 17.5 13.125 17.5 10C17.5 7.2375 15.2625 5 12.5 5Z" fill="currentColor"/>
</svg>
