<svg viewBox="0 0 14 14" fill="none" xmlns="http://www.w3.org/2000/svg">
<path d="M5.73333 9.7335L10.4333 5.0335L9.5 4.10016L5.73333 7.86683L3.83333 5.96683L2.9 6.90016L5.73333 9.7335ZM6.66667 13.3335C5.74444 13.3335 4.87778 13.1585 4.06667 12.8085C3.25556 12.4585 2.55 11.9835 1.95 11.3835C1.35 10.7835 0.875 10.0779 0.525 9.26683C0.175 8.45572 0 7.58905 0 6.66683C0 5.74461 0.175 4.87794 0.525 4.06683C0.875 3.25572 1.35 2.55016 1.95 1.95016C2.55 1.35016 3.25556 0.875162 4.06667 0.525162C4.87778 0.175162 5.74444 0.000162125 6.66667 0.000162125C7.58889 0.000162125 8.45556 0.175162 9.26667 0.525162C10.0778 0.875162 10.7833 1.35016 11.3833 1.95016C11.9833 2.55016 12.4583 3.25572 12.8083 4.06683C13.1583 4.87794 13.3333 5.74461 13.3333 6.66683C13.3333 7.58905 13.1583 8.45572 12.8083 9.26683C12.4583 10.0779 11.9833 10.7835 11.3833 11.3835C10.7833 11.9835 10.0778 12.4585 9.26667 12.8085C8.45556 13.1585 7.58889 13.3335 6.66667 13.3335ZM6.66667 12.0002C8.15556 12.0002 9.41667 11.4835 10.45 10.4502C11.4833 9.41683 12 8.15572 12 6.66683C12 5.17794 11.4833 3.91683 10.45 2.8835C9.41667 1.85016 8.15556 1.3335 6.66667 1.3335C5.17778 1.3335 3.91667 1.85016 2.88333 2.8835C1.85 3.91683 1.33333 5.17794 1.33333 6.66683C1.33333 8.15572 1.85 9.41683 2.88333 10.4502C3.91667 11.4835 5.17778 12.0002 6.66667 12.0002Z" fill="currentColor"/>
</svg>
