<svg width="70" height="68" viewBox="0 0 70 68" fill="none" xmlns="http://www.w3.org/2000/svg">
<path d="M67.1854 50.2063C67.1854 57.9704 56.1831 63.634 53.4693 64.9116C50.754 63.6352 39.7531 57.9854 39.7531 50.2063V38.9055C42.3236 38.9657 44.8824 38.5771 47.2858 37.7615C49.6044 36.952 51.7074 35.7183 53.4595 34.1399C55.2038 35.7203 57.3022 36.9544 59.6177 37.7615C62.0324 38.58 64.6033 38.9687 67.1854 38.9055V50.2063ZM69.4961 36.6138C69.3438 36.4966 69.1649 36.41 68.9717 36.36C68.7785 36.31 68.5755 36.2978 68.3765 36.3241C65.7525 36.5653 63.1016 36.2578 60.6338 35.4262C56.7037 34.0662 54.6239 31.5298 54.6071 31.5085C54.4791 31.3452 54.3094 31.2114 54.1121 31.118C53.9147 31.0247 53.6954 30.9745 53.4721 30.9715C53.2502 30.9744 53.0321 31.0236 52.8354 31.1154C52.6388 31.2071 52.469 31.3388 52.3398 31.4998C52.3188 31.526 50.2166 34.0724 46.2837 35.4337C43.8312 36.264 41.1949 36.5703 38.5859 36.3279C38.3862 36.2999 38.182 36.3109 37.9875 36.36C37.793 36.4092 37.6128 36.4953 37.4592 36.6126C37.3056 36.7298 37.1822 36.8754 37.0977 37.0392C37.0131 37.2031 36.9693 37.3813 36.9693 37.5617V50.2063C36.9693 60.6005 52.2362 67.167 52.8856 67.4405C53.0725 67.5212 53.2771 67.5639 53.4847 67.5654C53.6922 67.5639 53.8969 67.5212 54.0837 67.4405C54.7331 67.1657 70 60.5993 70 50.2063V37.5617C70 37.3816 69.9563 37.2037 69.872 37.0401C69.7877 36.8765 69.6647 36.7311 69.5115 36.6138H69.4961Z" fill="#C8C8D0"/>
<path d="M59.8179 44.348L51.8038 52.2919L47.3474 48.4817C47.2147 48.3682 47.0583 48.2791 46.887 48.2195C46.7157 48.16 46.533 48.1311 46.3492 48.1346C46.1654 48.1381 45.9842 48.1739 45.8159 48.2398C45.6476 48.3058 45.4956 48.4007 45.3684 48.5191C45.2412 48.6375 45.1414 48.7771 45.0746 48.93C45.0079 49.0828 44.9756 49.2458 44.9795 49.4098C44.9834 49.5738 45.0234 49.7355 45.0973 49.8856C45.1713 50.0358 45.2776 50.1715 45.4104 50.285L50.9108 54.9869C51.1711 55.2094 51.5175 55.3338 51.8779 55.3341H51.9311C52.1184 55.3279 52.3023 55.2883 52.472 55.2175C52.6418 55.1467 52.7938 55.0462 52.9192 54.922L61.8991 46.0202C62.1474 45.774 62.2759 45.45 62.2565 45.1193C62.2371 44.7887 62.0713 44.4784 61.7955 44.2568C61.659 44.1468 61.4995 44.062 61.3262 44.007C61.1529 43.9521 60.9692 43.9282 60.7855 43.9367C60.6019 43.9451 60.4219 43.9858 60.2559 44.0564C60.0898 44.127 59.941 44.226 59.8179 44.348Z" fill="#C8C8D0"/>
<path d="M5.44166 10.4904H57.2718C58.6518 10.4904 59.9087 11.7392 59.9087 13.1204V22.7291L51.9309 25.5665C50.8001 25.9911 49.1611 26.397 47.5922 26.6592V25.7263C47.5922 25.3951 47.4447 25.0775 47.1822 24.8433C46.9198 24.6091 46.5638 24.4775 46.1926 24.4775H39.4745C39.1033 24.4775 38.7473 24.6091 38.4848 24.8433C38.2223 25.0775 38.0749 25.3951 38.0749 25.7263V26.9752H24.6386V25.7263C24.6386 25.3951 24.4912 25.0775 24.2287 24.8433C23.9662 24.6091 23.6102 24.4775 23.239 24.4775H16.5209C16.1497 24.4775 15.7937 24.6091 15.5313 24.8433C15.2688 25.0775 15.1213 25.3951 15.1213 25.7263V26.658C13.5482 26.397 11.9022 25.9886 10.756 25.5577L2.80481 22.7291V13.1267C2.80481 11.7529 4.06445 10.4966 5.44166 10.4966V10.4904ZM19.6001 5.06783C19.6001 3.67411 20.7785 2.4977 22.1739 2.4977H40.5396C41.9392 2.4977 43.1134 3.67411 43.1134 5.06783V7.99265H19.6001V5.06783ZM44.793 29.4729H40.8741V26.9752H44.793V29.4729ZM21.8394 29.4729H17.9205V26.9752H21.8394V29.4729ZM34.156 44.4591H6.25624C4.76985 44.4591 3.36466 43.2102 3.36466 41.889V25.6152L9.69507 27.8631C11.1367 28.4051 13.1941 28.9009 15.1213 29.1869V30.7167C15.1213 31.048 15.2688 31.3656 15.5313 31.5998C15.7937 31.834 16.1497 31.9656 16.5209 31.9656H23.239C23.6102 31.9656 23.9662 31.834 24.2287 31.5998C24.4912 31.3656 24.6386 31.048 24.6386 30.7167V29.4679H38.0749V30.7167C38.0749 31.048 38.2223 31.3656 38.4848 31.5998C38.7473 31.834 39.1033 31.9656 39.4745 31.9656H46.1926C46.5638 31.9656 46.9198 31.834 47.1822 31.5998C47.4447 31.3656 47.5922 31.048 47.5922 30.7167V29.1919C49.5138 28.9059 51.5726 28.4114 52.9946 27.8769L59.3488 25.6177V32.4701C59.3488 32.8013 59.4963 33.119 59.7588 33.3532C60.0213 33.5874 60.3773 33.719 60.7484 33.719C61.1196 33.719 61.4756 33.5874 61.7381 33.3532C62.0006 33.119 62.1481 32.8013 62.1481 32.4701V24.6024C62.3219 24.486 62.463 24.3352 62.5601 24.1618C62.6573 23.9884 62.7079 23.7972 62.7079 23.6033V13.1267C62.7079 10.3467 60.218 7.99889 57.2718 7.99889H45.9126V5.06783C45.9126 2.27415 43.5025 0 40.5396 0H22.1683C19.2054 0 16.7953 2.27415 16.7953 5.06783V7.99265H5.43607C2.4969 7.99265 0 10.3405 0 13.1204V23.7419C0 23.9358 0.0505884 24.127 0.14776 24.3004C0.244931 24.4738 0.386017 24.6247 0.559842 24.741V41.8877C0.559842 44.5877 3.2191 46.9556 6.25064 46.9556H34.1504C34.5216 46.9556 34.8776 46.824 35.14 46.5898C35.4025 46.3556 35.55 46.0379 35.55 45.7067C35.55 45.3755 35.4025 45.0578 35.14 44.8236C34.8776 44.5894 34.5216 44.4579 34.1504 44.4579L34.156 44.4591Z" fill="#C8C8D0"/>
</svg>
