<svg width="70" height="68" viewBox="0 0 70 68" fill="none" xmlns="http://www.w3.org/2000/svg">
<path d="M67.1784 50.2122C67.1784 57.9757 56.1764 63.6388 53.4626 64.9163C50.7474 63.6401 39.7467 57.9907 39.7467 50.2122V38.9123C42.3171 38.9725 44.8759 38.5839 47.2792 37.7684C49.5978 36.959 51.7008 35.7254 53.4528 34.147C55.197 35.7273 57.2955 36.9614 59.6109 37.7684C62.0255 38.5869 64.5964 38.9755 67.1784 38.9123V50.2122ZM69.4892 36.6208C69.3368 36.5036 69.158 36.417 68.9647 36.367C68.7715 36.317 68.5685 36.3047 68.3695 36.3311C65.7455 36.5722 63.0947 36.2648 60.627 35.4332C56.697 34.0733 54.6172 31.5372 54.6004 31.516C54.4724 31.3527 54.3027 31.2188 54.1054 31.1255C53.9081 31.0321 53.6887 30.9819 53.4654 30.979C53.2435 30.9818 53.0254 31.031 52.8288 31.1228C52.6321 31.2145 52.4623 31.3462 52.3331 31.5072C52.3121 31.5334 50.21 34.0796 46.2771 35.4407C43.8247 36.271 41.1884 36.5773 38.5794 36.3349C38.3809 36.3078 38.178 36.3193 37.9848 36.3684C37.7916 36.4175 37.6126 36.5032 37.4598 36.6196C37.3062 36.7368 37.1828 36.8824 37.0983 37.0462C37.0137 37.21 36.9699 37.3882 36.9699 37.5686V50.2122C36.9699 60.6056 52.2365 67.1715 52.8859 67.445C53.0728 67.5258 53.2774 67.5684 53.485 67.5699C53.6926 67.5684 53.8972 67.5258 54.084 67.445C54.7334 67.1703 70 60.6044 70 50.2122V37.5686C70 37.3886 69.9563 37.2106 69.872 37.047C69.7877 36.8834 69.6647 36.7381 69.5116 36.6208H69.4892Z" fill="#26245F"/>
<path d="M67.1782 50.2124C67.1782 57.9759 56.1761 63.639 53.4624 64.9165C50.7472 63.6402 39.7465 57.9909 39.7465 50.2124V38.9125C42.3169 38.9724 44.8756 38.5838 47.279 37.7686C49.5975 36.959 51.7005 35.7254 53.4526 34.1472C55.1963 35.7281 57.2949 36.9622 59.6107 37.7686C62.0251 38.5877 64.5962 38.9763 67.1782 38.9125V50.2124Z" fill="#E34F56"/>
<path d="M59.8169 44.3544L51.8029 52.2978L47.3467 48.4878C47.214 48.3743 47.0575 48.2853 46.8863 48.2257C46.715 48.1662 46.5322 48.1373 46.3485 48.1408C46.1647 48.1443 45.9835 48.18 45.8152 48.246C45.6469 48.3119 45.4949 48.4069 45.3677 48.5253C45.2405 48.6437 45.1406 48.7833 45.0739 48.9361C45.0072 49.0889 44.9749 49.2519 44.9788 49.4159C44.9827 49.5799 45.0227 49.7415 45.0966 49.8917C45.1706 50.0418 45.2769 50.1775 45.4096 50.291L50.91 54.9926C51.1702 55.2151 51.5167 55.3394 51.8771 55.3397H51.9303C52.1175 55.3335 52.3015 55.2939 52.4712 55.2231C52.6409 55.1523 52.793 55.0519 52.9184 54.9277L61.8981 46.0265C62.1464 45.7804 62.2749 45.4564 62.2555 45.1257C62.2361 44.7951 62.0703 44.4849 61.7945 44.2633C61.6579 44.1534 61.4984 44.0686 61.325 44.0138C61.1517 43.959 60.9679 43.9352 60.7843 43.9438C60.6006 43.9524 60.4206 43.9931 60.2547 44.0638C60.0887 44.1345 59.9399 44.2337 59.8169 44.3557V44.3544Z" fill="white"/>
<path d="M18.1302 9.0685C18.1302 9.0685 16.6746 1.16517 23.6067 1.35623C30.5389 1.54729 41.4934 1.35623 41.4934 1.35623C41.4934 1.35623 45.9426 1.1689 44.2309 9.26331" fill="#26245F"/>
<path d="M23.5645 25.8554H16.4617V30.7156H23.5645V25.8554Z" fill="white"/>
<path d="M46.4791 25.7218H39.3763V30.582H46.4791V25.7218Z" fill="white"/>
<path d="M5.43596 10.4995H57.2652C58.6452 10.4995 59.902 11.7483 59.902 13.1294V22.7373L51.9244 25.5745C50.7935 25.9991 49.1546 26.4049 47.5857 26.6671V25.7343C47.5857 25.4031 47.4382 25.0855 47.1758 24.8513C46.9133 24.6171 46.5573 24.4855 46.1861 24.4855H39.4681C39.097 24.4855 38.741 24.6171 38.4785 24.8513C38.216 25.0855 38.0686 25.4031 38.0686 25.7343V26.9831H24.6326V25.7343C24.6326 25.4031 24.4851 25.0855 24.2227 24.8513C23.9602 24.6171 23.6042 24.4855 23.233 24.4855H16.515C16.1438 24.4855 15.7879 24.6171 15.5254 24.8513C15.2629 25.0855 15.1155 25.4031 15.1155 25.7343V26.6659C13.5423 26.4049 11.8964 25.9965 10.7502 25.5657L2.79916 22.7373V13.1294C2.79916 11.7558 4.05878 10.4995 5.43596 10.4995ZM19.5941 5.07745C19.5941 3.68384 20.7726 2.5075 22.1679 2.5075H40.5332C41.9328 2.5075 43.107 3.68384 43.107 5.07745V8.00201H19.5941V5.07745ZM44.7865 29.4806H40.8677V26.9831H44.7865V29.4806ZM21.8334 29.4806H17.9146V26.9831H21.8334V29.4806ZM34.1497 44.4656H6.25053C4.76417 44.4656 3.35899 43.2168 3.35899 41.8956V25.6256L9.68929 27.8734C11.1309 28.4154 13.1882 28.9111 15.1155 29.1971V30.7268C15.1155 31.058 15.2629 31.3756 15.5254 31.6098C15.7879 31.844 16.1438 31.9756 16.515 31.9756H23.233C23.6042 31.9756 23.9602 31.844 24.2227 31.6098C24.4851 31.3756 24.6326 31.058 24.6326 30.7268V29.4781H38.0686V30.7268C38.0686 31.058 38.216 31.3756 38.4785 31.6098C38.741 31.844 39.097 31.9756 39.4681 31.9756H46.1861C46.5573 31.9756 46.9133 31.844 47.1758 31.6098C47.4382 31.3756 47.5857 31.058 47.5857 30.7268V29.1971C49.5073 28.9111 51.5661 28.4166 52.9881 27.8822L59.3422 25.6231V32.4751C59.3422 32.8063 59.4896 33.1239 59.7521 33.3581C60.0146 33.5923 60.3706 33.7238 60.7418 33.7238C61.1129 33.7238 61.4689 33.5923 61.7314 33.3581C61.9939 33.1239 62.1413 32.8063 62.1413 32.4751V24.6079C62.3152 24.4916 62.4562 24.3408 62.5534 24.1674C62.6506 23.994 62.7012 23.8028 62.7012 23.6089V13.1194C62.7012 10.3397 60.2113 7.99201 57.2652 7.99201H45.9048V5.06745C45.9048 2.27399 43.4947 0 40.5318 0H22.1679C19.205 0 16.795 2.27399 16.795 5.06745V7.99201H5.43596C2.49685 7.99201 0 10.3397 0 13.1194V23.7413C0 23.9352 0.050579 24.1264 0.147749 24.2998C0.244918 24.4732 0.38601 24.624 0.559832 24.7403V41.8856C0.559832 44.5854 3.21904 46.9531 6.25053 46.9531H34.1483C34.5195 46.9531 34.8755 46.8216 35.138 46.5874C35.4005 46.3532 35.5479 46.0355 35.5479 45.7043C35.5479 45.3731 35.4005 45.0556 35.138 44.8214C34.8755 44.5872 34.5195 44.4556 34.1483 44.4556L34.1497 44.4656Z" fill="#26245F"/>
</svg>
