<svg width="78" height="53" viewBox="0 0 78 53" fill="none" xmlns="http://www.w3.org/2000/svg">
<path d="M44.9328 22.9639V34.6694C44.9328 42.727 55.9984 48.5791 58.7314 49.9012C61.4629 48.5766 72.5299 42.7115 72.5299 34.6694V22.9639C69.9324 23.0287 67.3461 22.6262 64.9167 21.779C62.5876 20.9425 60.4766 19.6642 58.7215 18.0276C56.9589 19.6626 54.8433 20.9405 52.5108 21.779C50.0929 22.6238 47.5187 23.0263 44.9328 22.9639ZM58.7314 52.6461C58.5225 52.6446 58.3167 52.6004 58.1287 52.5168C57.4754 52.2322 42.1168 45.4306 42.1168 34.6655V21.572C42.1168 21.3852 42.1609 21.2005 42.2459 21.0308C42.331 20.8611 42.4551 20.7103 42.6096 20.5889C42.7642 20.4674 42.9455 20.3782 43.1412 20.3273C43.3368 20.2764 43.5422 20.265 43.7431 20.294C46.3677 20.5441 49.0197 20.2269 51.4871 19.3678C55.4437 17.9565 57.5585 15.3189 57.5796 15.293C57.7096 15.1263 57.8804 14.9899 58.0782 14.8949C58.2761 14.7998 58.4954 14.7488 58.7187 14.7458H58.7257C58.9504 14.7489 59.1711 14.8009 59.3696 14.8976C59.5681 14.9943 59.7388 15.133 59.8676 15.3021C59.8845 15.3241 61.9796 17.9513 65.9305 19.36C68.4128 20.2222 71.0799 20.5407 73.7196 20.2901C73.9198 20.2628 74.1241 20.2755 74.3185 20.3273C74.5129 20.3791 74.6928 20.4688 74.846 20.5902C75.0002 20.7116 75.1239 20.8623 75.2087 21.0317C75.2935 21.2012 75.3374 21.3855 75.3374 21.572V34.6694C75.3374 45.4358 59.9789 52.2374 59.3255 52.5206C59.1376 52.6043 58.9317 52.6485 58.7229 52.65L58.7314 52.6461Z" fill="#26245F"/>
<path d="M44.9328 22.9639V34.6694C44.9328 42.727 55.9983 48.5791 58.7313 49.9012C61.4628 48.5765 72.5298 42.7115 72.5298 34.6694V22.9639C69.9323 23.0287 67.346 22.6262 64.9167 21.779C62.5876 20.9425 60.4766 19.6642 58.7214 18.0276C56.9589 19.6626 54.8432 20.9405 52.5107 21.779C50.0929 22.6237 47.5186 23.0263 44.9328 22.9639Z" fill="#E34F56"/>
<path d="M57.1346 39.9808C56.772 39.9806 56.4235 39.8518 56.1617 39.6213L50.6282 34.7509C50.4946 34.6334 50.3877 34.4928 50.3133 34.3373C50.2389 34.1817 50.1986 34.0143 50.1947 33.8444C50.1907 33.6746 50.2233 33.5057 50.2904 33.3474C50.3576 33.1891 50.4579 33.0445 50.5859 32.9219C50.7139 32.7992 50.8669 32.7009 51.0362 32.6325C51.2055 32.5642 51.3877 32.5272 51.5726 32.5236C51.7575 32.52 51.9413 32.5499 52.1137 32.6116C52.286 32.6732 52.4434 32.7655 52.5769 32.883L57.0599 36.8297L65.1222 28.6013C65.246 28.4749 65.3956 28.3722 65.5626 28.299C65.7296 28.2258 65.9106 28.1835 66.0954 28.1746C66.2802 28.1657 66.4651 28.1904 66.6394 28.2472C66.8138 28.304 66.9743 28.3918 67.1118 28.5056C67.3892 28.7352 67.5559 29.0565 67.5755 29.399C67.595 29.7416 67.4657 30.0772 67.216 30.3321L58.1821 39.5527C58.056 39.6813 57.903 39.7854 57.7322 39.8588C57.5615 39.9321 57.3765 39.9732 57.1881 39.9796L57.1346 39.9808Z" fill="white"/>
<path d="M32.6732 45.6052C32.3403 45.6055 32.018 45.4973 31.7637 45.3C31.5744 45.1529 31.4306 44.9625 31.3471 44.7481C31.2635 44.5337 31.243 44.3029 31.2877 44.0789L34.4614 28.168L24.5166 31.5312C16.1178 34.3396 7.33186 34.4146 6.96155 34.4146C6.66927 34.4071 6.38632 34.3183 6.15022 34.1598C5.91413 34.0013 5.736 33.7807 5.63941 33.5272L4.15958 29.7758C4.09542 29.612 4.06725 29.4382 4.07667 29.2643C4.0861 29.0905 4.13295 28.9201 4.21452 28.7629C4.35587 28.4928 4.59394 28.2754 4.88893 28.1472L0.231245 21.6315C0.114439 21.4682 0.0394187 21.2826 0.0118619 21.0888C-0.0156948 20.895 0.00491085 20.698 0.0721218 20.5126C0.138961 20.3273 0.250573 20.1584 0.398584 20.0184C0.546595 19.8783 0.727177 19.7709 0.926795 19.7041L5.61971 18.135C5.95531 18.0229 6.32471 18.0322 6.65317 18.1609L15.0787 21.4634C16.2192 21.9226 18.1257 22.1231 19.842 21.55L65.3955 6.31695C67.9102 5.47613 70.6051 5.17475 72.9987 5.46451C75.543 5.77367 77.3072 6.72184 77.8394 8.06585C78.3717 9.40987 77.5719 11.1484 75.5711 12.9245C73.7163 14.5274 71.5275 15.7687 69.1365 16.5737L66.1051 17.5879C65.9311 17.6459 65.7463 17.6719 65.5614 17.6643C65.3765 17.6568 65.195 17.6157 65.0274 17.5436C64.8597 17.4716 64.7091 17.3698 64.5843 17.2442C64.4595 17.1186 64.3629 16.9717 64.3 16.8117C64.2368 16.6519 64.2085 16.4821 64.2168 16.3122C64.225 16.1423 64.2696 15.9756 64.3481 15.8216C64.4266 15.6675 64.5373 15.5292 64.674 15.4146C64.8107 15.2999 64.9707 15.2111 65.1448 15.1533L68.1763 14.1392C72.4482 12.7163 75.3022 9.74104 75.1896 8.9248C74.8939 8.23792 71.0106 7.18881 66.3585 8.74498L20.8037 23.9729C18.6508 24.6934 15.9644 24.6365 13.9608 23.8306L6.05758 20.7325L3.56118 21.5668L8.24 28.1123C8.35826 28.2778 8.4336 28.4661 8.46021 28.6625C8.48682 28.859 8.46399 29.0584 8.39349 29.2454C8.32288 29.4326 8.20644 29.6024 8.05314 29.7417C7.89983 29.8809 7.71374 29.986 7.50925 30.0488L7.29946 30.1135L7.93588 31.7214C10.4154 31.6282 17.2006 31.1794 23.5535 29.0553L35.8032 24.9573C36.0362 24.8795 36.2874 24.8596 36.5314 24.8996C36.7754 24.9395 37.0036 25.038 37.193 25.185C37.3823 25.332 37.526 25.5224 37.6095 25.7368C37.6931 25.9512 37.7136 26.1821 37.6689 26.4061L34.4952 42.317L36.9606 41.493L38.853 37.5192C39.0028 37.2049 39.2823 36.9582 39.63 36.8332C39.9778 36.7083 40.3653 36.7154 40.7074 36.8529C41.0494 36.9905 41.3179 37.2473 41.4539 37.5668C41.5899 37.8863 41.5822 38.2424 41.4325 38.5566L39.2993 43.0375C39.223 43.1979 39.112 43.3424 38.9731 43.4623C38.8342 43.5821 38.6702 43.6748 38.4912 43.7347L33.1478 45.5212C32.9938 45.5723 32.8313 45.5985 32.6676 45.5988L32.6732 45.6052Z" fill="#26245F"/>
<path d="M17.0542 3.43879L32.2579 16.0485L43.6248 12.2053L21.5739 1.38331L17.0542 3.43879Z" fill="#26245F"/>
<path d="M31.7932 16.1209C31.4658 16.1209 31.1487 16.0162 30.8963 15.8247L15.4405 4.07649C15.2494 3.93123 15.1034 3.74218 15.0173 3.52843C14.9313 3.31468 14.9083 3.08379 14.9505 2.85922C14.9928 2.63488 15.0988 2.42481 15.2578 2.25015C15.4167 2.07548 15.623 1.94242 15.8559 1.86448L21.1979 0.0780499C21.3766 0.0182354 21.5667 -0.0076211 21.7567 0.00193906C21.9467 0.0114992 22.1326 0.0563004 22.3032 0.133696L43.7162 9.84708C43.8821 9.92228 44.0303 10.0268 44.1522 10.1546C44.2741 10.2825 44.3675 10.4311 44.4268 10.5921C44.4862 10.7531 44.5104 10.9232 44.4982 11.0928C44.486 11.2624 44.4374 11.4282 44.3554 11.5805C44.1901 11.888 43.8987 12.1226 43.5451 12.2327C43.1916 12.3429 42.8049 12.3195 42.4701 12.1678L21.5963 2.69885L19.1295 3.52287L32.6915 13.8313C32.834 13.9396 32.9518 14.0726 33.0383 14.2227C33.1249 14.3729 33.1783 14.5372 33.1957 14.7064C33.2131 14.8755 33.1941 15.0461 33.1397 15.2084C33.0853 15.3708 32.9966 15.5218 32.8787 15.6527C32.7465 15.7993 32.5806 15.9173 32.3929 15.9983C32.2053 16.0792 32.0005 16.1211 31.7932 16.1209Z" fill="#26245F"/>
</svg>
