<svg width="67" height="55" viewBox="0 0 67 55" fill="none" xmlns="http://www.w3.org/2000/svg">
<path d="M30.4373 54.231C30.2592 54.231 30.0832 54.1935 29.9217 54.1213L0.695002 40.938C0.487264 40.8443 0.311618 40.6959 0.18856 40.5101C0.0655013 40.3243 0.000103522 40.1088 0 39.8887V10.228C0.000151806 10.0373 0.0492705 9.84961 0.143019 9.68144C0.236767 9.51326 0.372262 9.36979 0.53755 9.26369C0.702838 9.15758 0.892836 9.0921 1.09077 9.07303C1.28871 9.05395 1.4885 9.08188 1.67252 9.15433L30.4232 20.5017L57.459 9.16515C57.6432 9.08805 57.8445 9.05611 58.0448 9.07223C58.2451 9.08835 58.438 9.15201 58.6062 9.25747C58.7744 9.36294 58.9126 9.50688 59.0082 9.67631C59.1039 9.84575 59.154 10.0353 59.1541 10.228V19.3847C59.1541 19.6924 59.0266 19.9875 58.7995 20.2051C58.5725 20.4227 58.2646 20.545 57.9435 20.545C57.6224 20.545 57.3145 20.4227 57.0875 20.2051C56.8604 19.9875 56.7329 19.6924 56.7329 19.3847V12.003L30.9218 22.8264C30.7728 22.8885 30.6122 22.9214 30.4496 22.923C30.2871 22.9246 30.1258 22.895 29.9754 22.8359L2.42685 11.961V39.1522L30.4274 51.7817L37.0144 48.6243C37.3016 48.4866 37.634 48.4639 37.9387 48.5611C38.2433 48.6584 38.4952 48.8676 38.6389 49.1429C38.7826 49.4181 38.8063 49.7368 38.7048 50.0288C38.6034 50.3208 38.385 50.5622 38.0979 50.6999L30.984 54.1091C30.8142 54.1902 30.627 54.2319 30.4373 54.231Z" fill="#C8C8D0"/>
<path d="M57.9505 11.3883C57.8204 11.3884 57.6911 11.3683 57.5677 11.3287L29.5897 2.38869L1.6047 11.3247C1.30083 11.4194 0.9702 11.3952 0.684915 11.2572C0.39963 11.1192 0.182827 10.8787 0.0817789 10.5882C-0.0192694 10.2976 0.00363271 9.98056 0.145494 9.70612C0.287356 9.43169 0.536669 9.22214 0.839069 9.12317L29.2055 0.0599141C29.4544 -0.0199714 29.7237 -0.0199714 29.9726 0.0599141L58.339 9.12317C58.6117 9.21032 58.8431 9.38761 58.9919 9.62334C59.1407 9.85906 59.1971 10.1378 59.1511 10.4098C59.105 10.6817 58.9595 10.9291 58.7406 11.1076C58.5217 11.2862 58.2436 11.3842 57.9562 11.3843L57.9505 11.3883Z" fill="#C8C8D0"/>
<path d="M30.437 54.231C30.116 54.231 29.8081 54.1087 29.581 53.8911C29.354 53.6735 29.2264 53.3784 29.2264 53.0706V21.7622C29.2264 21.4544 29.354 21.1593 29.581 20.9417C29.8081 20.7241 30.116 20.6019 30.437 20.6019C30.7581 20.6019 31.066 20.7241 31.2931 20.9417C31.5201 21.1593 31.6476 21.4544 31.6476 21.7622V53.0706C31.6476 53.3784 31.5201 53.6735 31.2931 53.8911C31.066 54.1087 30.7581 54.231 30.437 54.231Z" fill="#C8C8D0"/>
<path d="M18.9838 29.9345C18.8201 29.9347 18.658 29.9031 18.5074 29.8414C18.3569 29.7797 18.221 29.6893 18.108 29.5757L14.5765 26.0257L11.7315 26.8773C11.5502 26.9317 11.3581 26.9445 11.1708 26.9145C10.9834 26.8846 10.806 26.8128 10.6529 26.705C10.4999 26.5971 10.3754 26.4563 10.2897 26.2939C10.2039 26.1314 10.1593 25.9519 10.1593 25.7698V14.2343C10.1594 13.9998 10.2335 13.7709 10.372 13.5775C10.5104 13.3842 10.7066 13.2356 10.9348 13.1511L38.3661 3.02637C38.6658 2.91577 38.9991 2.92382 39.2926 3.04874C39.5861 3.17367 39.8159 3.40524 39.9313 3.69251C40.0467 3.97978 40.0383 4.29921 39.9079 4.58055C39.7776 4.86188 39.536 5.08207 39.2363 5.19267L12.5805 15.0317V24.1911L14.5722 23.5954C14.7878 23.5312 15.0178 23.5258 15.2363 23.5798C15.4549 23.6339 15.6534 23.7452 15.8097 23.9014L17.776 25.8768V17.24C17.7759 17.009 17.8478 16.7833 17.9824 16.5917C18.1171 16.4002 18.3084 16.2516 18.5318 16.165L46.0182 5.48512C46.1662 5.42406 46.3254 5.39194 46.4865 5.39064C46.6477 5.38933 46.8074 5.41887 46.9565 5.47752C47.1056 5.53618 47.2409 5.62276 47.3546 5.7322C47.4683 5.84164 47.5581 5.97173 47.6186 6.11485C47.6792 6.25797 47.7093 6.41124 47.7073 6.56567C47.7052 6.7201 47.671 6.87259 47.6067 7.01419C47.5424 7.15579 47.4492 7.28365 47.3326 7.39028C47.216 7.49692 47.0784 7.58017 46.9279 7.63517L20.1972 18.0226V28.7742C20.1981 29.0069 20.1262 29.2345 19.9907 29.4276C19.8552 29.6207 19.6624 29.7704 19.4372 29.8574C19.2925 29.9103 19.1387 29.9364 18.9838 29.9345Z" fill="#C8C8D0"/>
<path d="M51.3033 42.4544C51.1443 42.4544 50.9869 42.4244 50.84 42.3661C50.6931 42.3078 50.5597 42.2223 50.4473 42.1146L45.7193 37.5829C45.4922 37.3653 45.3647 37.0702 45.3647 36.7625C45.3647 36.4547 45.4922 36.1596 45.7193 35.942C45.9463 35.7244 46.2542 35.6021 46.5753 35.6021C46.8964 35.6021 47.2043 35.7244 47.4314 35.942L51.3033 39.6491L58.177 33.0608C58.2895 32.953 58.4231 32.8676 58.57 32.8093C58.717 32.751 58.8745 32.7211 59.0336 32.7211C59.1926 32.7212 59.3501 32.7513 59.497 32.8097C59.6439 32.8681 59.7774 32.9536 59.8898 33.0615C60.0022 33.1693 60.0914 33.2973 60.1522 33.4382C60.213 33.579 60.2442 33.73 60.2442 33.8824C60.2441 34.0349 60.2127 34.1858 60.1518 34.3266C60.0909 34.4674 60.0016 34.5954 59.8891 34.7031L52.1593 42.1105C52.0475 42.2192 51.9142 42.3056 51.7673 42.3646C51.6203 42.4237 51.4626 42.4542 51.3033 42.4544Z" fill="#C8C8D0"/>
<path d="M52.3951 55C52.1584 55.0002 51.9269 54.9333 51.7298 54.8077L50.3906 53.9629C49.7069 53.531 43.6497 49.698 41.5463 48.2087C39.1958 46.5406 37.7832 43.6174 37.7832 40.3897V26.6228C37.7832 26.4705 37.8145 26.3196 37.8753 26.1788C37.9361 26.038 38.0253 25.9101 38.1377 25.8024C38.2501 25.6946 38.3836 25.6091 38.5305 25.5508C38.6774 25.4925 38.8348 25.4625 38.9938 25.4625C44.5933 25.4625 51.58 20.327 51.6492 20.2756C51.8616 20.1181 52.1224 20.0327 52.3909 20.0327C52.6593 20.0327 52.9202 20.1181 53.1325 20.2756C53.2031 20.327 60.1884 25.4625 65.7894 25.4625C66.1105 25.4625 66.4184 25.5848 66.6454 25.8024C66.8724 26.02 67 26.3151 67 26.6228V40.3897C67 43.6174 65.5874 46.5406 63.2411 48.2087C61.1476 49.6899 55.0861 53.5269 54.401 53.9602L53.0576 54.8077C52.8613 54.9328 52.6308 54.9996 52.3951 55ZM40.2086 27.7236V40.3897C40.2086 42.885 41.2469 45.1095 42.9858 46.347C45.0736 47.8268 51.4529 51.8589 51.7227 52.0335L52.3951 52.4573L53.0675 52.0335C53.7512 51.6016 59.7632 47.7957 61.8059 46.347C63.5448 45.1149 64.5816 42.8904 64.5816 40.3897V27.7236C59.5824 27.2362 54.312 23.9325 52.3951 22.6341C50.4782 23.9434 45.2078 27.2362 40.2086 27.7236Z" fill="#C8C8D0"/>
</svg>
