<svg width="67" height="55" viewBox="0 0 67 55" fill="none" xmlns="http://www.w3.org/2000/svg">
<path d="M11.3271 14.4859V25.4755L14.8172 24.689L18.5457 28.5593L19.3323 17.1437L45.6408 6.5147L38.6449 4.23459L11.3271 14.4859Z" fill="#26245F"/>
<path d="M30.4306 54.2317C30.2529 54.2329 30.0771 54.1962 29.9159 54.1244L0.699143 40.9406C0.49133 40.847 0.31561 40.6986 0.192547 40.5128C0.069484 40.3269 0.00417451 40.1113 0.00425765 39.8912V10.224C0.00408588 10.0331 0.0530046 9.84513 0.146692 9.67669C0.240379 9.50824 0.375943 9.36455 0.541369 9.25833C0.706804 9.15256 0.896833 9.08744 1.09471 9.06873C1.29258 9.05001 1.49223 9.07829 1.67602 9.15104L30.4172 20.499L57.444 9.16073C57.6282 9.08354 57.8294 9.05152 58.0297 9.06763C58.2299 9.08374 58.4229 9.14746 58.591 9.25299C58.7594 9.3584 58.8977 9.50237 58.9934 9.67192C59.0891 9.84147 59.1393 10.0312 59.1393 10.224V19.3842C59.1393 19.5366 59.108 19.6875 59.0471 19.8283C58.9863 19.9691 58.8971 20.097 58.7846 20.2047C58.6722 20.3125 58.5387 20.3979 58.3918 20.4561C58.2449 20.5143 58.0875 20.5442 57.9286 20.5441C57.7694 20.5445 57.6118 20.5148 57.4646 20.4567C57.3175 20.3986 57.1837 20.3132 57.0711 20.2055C56.9584 20.0977 56.869 19.9697 56.808 19.8288C56.747 19.6878 56.7156 19.5368 56.7156 19.3842V12.0009L30.9129 22.8252C30.7641 22.8878 30.6036 22.921 30.4411 22.9226C30.2787 22.9243 30.1175 22.8945 29.9673 22.8349L2.42238 11.9569V39.1508L30.4116 51.781L36.9979 48.6242C37.14 48.556 37.2947 48.5153 37.4532 48.5044C37.6118 48.4935 37.771 48.5127 37.9217 48.5608C38.0725 48.6089 38.2119 48.6851 38.332 48.7849C38.4521 48.8847 38.5505 49.0062 38.6216 49.1425C38.6927 49.2789 38.7352 49.4274 38.7465 49.5796C38.7578 49.7317 38.7377 49.8844 38.6874 50.0291C38.6371 50.1738 38.5576 50.3076 38.4533 50.4228C38.3491 50.538 38.2223 50.6323 38.08 50.7005L30.9688 54.1094C30.8017 54.1894 30.6174 54.2313 30.4306 54.2317Z" fill="#26245F"/>
<path d="M57.925 11.385C57.7949 11.3849 57.6657 11.3646 57.5423 11.3249L29.5677 2.3837L1.59302 11.3249C1.44226 11.3732 1.28306 11.3925 1.12451 11.3817C0.965962 11.371 0.811183 11.3303 0.66902 11.2622C0.526856 11.194 0.400091 11.0997 0.295979 10.9845C0.191866 10.8693 0.112444 10.7356 0.062251 10.591C0.0119189 10.4464 -0.00820734 10.2937 0.00302345 10.1417C0.0142542 9.98969 0.0566254 9.8413 0.127707 9.70498C0.198789 9.56866 0.29719 9.44713 0.417289 9.34729C0.537388 9.24746 0.67683 9.17129 0.82764 9.12316L29.185 0.0595789C29.4334 -0.0198596 29.702 -0.0198596 29.9504 0.0595789L58.3066 9.12316C58.4574 9.17129 58.5968 9.24746 58.7169 9.34729C58.837 9.44713 58.9354 9.56866 59.0065 9.70498C59.0776 9.8413 59.12 9.98969 59.1312 10.1417C59.1424 10.2937 59.1223 10.4464 59.072 10.591C58.9919 10.822 58.838 11.0231 58.6322 11.1656C58.4263 11.3081 58.1789 11.3849 57.925 11.385Z" fill="#26245F"/>
<path d="M30.4304 54.2317C30.1098 54.2326 29.802 54.1113 29.5745 53.8946C29.3471 53.6779 29.2186 53.3835 29.2175 53.0761V21.7598C29.2175 21.6072 29.2489 21.4561 29.3099 21.3151C29.3709 21.1742 29.4603 21.0462 29.5729 20.9384C29.6856 20.8307 29.8194 20.7453 29.9665 20.6872C30.1137 20.6291 30.2713 20.5995 30.4304 20.5999C30.5894 20.5997 30.7468 20.6296 30.8937 20.6878C31.0406 20.7461 31.174 20.8315 31.2865 20.9392C31.3989 21.0469 31.4881 21.1749 31.549 21.3157C31.6099 21.4565 31.6412 21.6074 31.6412 21.7598V53.0761C31.64 53.3832 31.5119 53.6773 31.2849 53.8939C31.058 54.1105 30.7507 54.232 30.4304 54.2317Z" fill="#26245F"/>
<path d="M18.9731 29.9328C18.8093 29.9331 18.647 29.9014 18.4964 29.8396C18.3458 29.7778 18.2098 29.6872 18.0969 29.5733L14.5632 26.0238L11.7198 26.8747C11.5387 26.9292 11.3467 26.9419 11.1595 26.9119C10.9723 26.8819 10.7951 26.81 10.6423 26.702C10.4892 26.5944 10.3647 26.4536 10.279 26.2912C10.1933 26.1289 10.1486 25.9494 10.1488 25.7674V14.2338C10.1489 13.9992 10.223 13.7701 10.3614 13.5767C10.4998 13.3833 10.696 13.2346 10.9242 13.1501L38.3461 3.02425C38.4945 2.96919 38.6528 2.94275 38.8119 2.94639C38.9709 2.95004 39.1277 2.98373 39.2732 3.04552C39.4187 3.1073 39.5501 3.19598 39.6598 3.30648C39.7695 3.41699 39.8555 3.54715 39.9127 3.68952C40.028 3.97711 40.0195 4.29677 39.8893 4.57841C39.759 4.86004 39.5175 5.08063 39.2178 5.19171L12.5714 15.0311V24.1923L14.5621 23.5957C14.7776 23.5316 15.0074 23.5264 15.2258 23.5806C15.4442 23.6348 15.6425 23.7463 15.7985 23.9025L17.7646 25.8779V17.2382C17.765 17.0076 17.8371 16.7824 17.9716 16.5913C18.1062 16.4001 18.2971 16.2518 18.5199 16.1652L45.9966 5.48359C46.1442 5.42631 46.3021 5.39749 46.4613 5.39887C46.6205 5.40024 46.7779 5.43179 46.9243 5.4916C47.0708 5.55141 47.2035 5.63833 47.3149 5.74743C47.4263 5.85654 47.5141 5.98567 47.5733 6.12738C47.6328 6.26891 47.6627 6.42031 47.6612 6.57292C47.6597 6.72554 47.6269 6.87637 47.5645 7.01679C47.5021 7.15721 47.4115 7.28443 47.2978 7.39124C47.1841 7.49804 47.0496 7.58232 46.9019 7.63921L20.1816 18.0268V28.7728C20.1807 29.0039 20.1079 29.2294 19.9725 29.4206C19.8372 29.6117 19.6454 29.7598 19.4218 29.8458C19.2793 29.9018 19.1271 29.9313 18.9731 29.9328Z" fill="#26245F"/>
<path d="M64.5595 27.7213V40.389C64.5595 42.8837 63.5211 45.1102 61.7833 46.3409C59.7422 47.7873 53.7322 51.5986 53.0485 52.0278L52.3771 52.4516L51.7057 52.0278C51.4349 51.8561 45.0589 47.8227 42.9709 46.3409C41.2331 45.1081 40.1958 42.8827 40.1958 40.388V27.7213C45.1932 27.2331 50.4614 23.9368 52.3782 22.631C54.2883 23.9368 59.5576 27.2331 64.5595 27.7213Z" fill="#E34F56"/>
<path d="M51.2805 42.4535C50.9594 42.4534 50.6515 42.3311 50.4245 42.1134L45.6979 37.58C45.4712 37.3623 45.3439 37.0673 45.3439 36.7597C45.3439 36.4521 45.4712 36.157 45.6979 35.9394C45.8102 35.8315 45.9436 35.7459 46.0905 35.6875C46.2374 35.629 46.3949 35.599 46.5539 35.599C46.7129 35.599 46.8704 35.629 47.0172 35.6875C47.1641 35.7459 47.2976 35.8315 47.4099 35.9394L51.2805 39.6508L58.1511 33.0627C58.3783 32.8453 58.6861 32.7232 59.0071 32.7232C59.3281 32.7232 59.6359 32.8453 59.8631 33.0627C60.0898 33.2805 60.2172 33.5757 60.2172 33.8835C60.2172 34.1913 60.0898 34.4865 59.8631 34.7043L52.1421 42.1134C52.029 42.2218 51.8947 42.3077 51.7468 42.3661C51.5989 42.4245 51.4404 42.4542 51.2805 42.4535Z" fill="white"/>
<path d="M65.7646 25.4605C62.9672 25.4605 59.8206 24.1729 57.3722 22.8853C55.8934 22.1096 54.4726 21.2362 53.1201 20.2715C52.9082 20.114 52.6475 20.0286 52.3793 20.029C52.1108 20.0286 51.8498 20.114 51.6374 20.2715C51.5681 20.3241 44.5878 25.4595 38.9862 25.4595C38.6651 25.4595 38.3571 25.5818 38.1301 25.7995C37.903 26.0172 37.7755 26.3125 37.7755 26.6204V40.388C37.7755 43.6166 39.1809 46.5394 41.5341 48.2069C43.6367 49.6973 49.6915 53.53 50.3741 53.9624L51.7169 54.8079C51.9161 54.9339 52.1497 55.0008 52.3883 55C52.6269 55.0008 52.8605 54.934 53.0597 54.8079L54.4025 53.9592C55.0873 53.53 61.1466 49.6898 63.2425 48.2069C65.5923 46.5394 67 43.6166 67 40.388V26.6215C67.0002 26.467 66.9682 26.314 66.9059 26.1715C66.8435 26.029 66.7521 25.8999 66.6371 25.7918C66.522 25.6836 66.3855 25.5986 66.2357 25.5417C66.0859 25.4848 65.9257 25.4572 65.7646 25.4605ZM64.5595 40.389C64.5595 42.8837 63.5211 45.1102 61.7833 46.3409C59.7423 47.7873 53.7322 51.5986 53.0485 52.0278L52.3771 52.4516L51.7057 52.0278C51.4349 51.8561 45.0589 47.8227 42.9709 46.3409C41.2331 45.1081 40.1958 42.8827 40.1958 40.388V27.7213C45.1932 27.2331 50.4614 23.9368 52.3782 22.631C54.2939 23.9368 59.5632 27.2331 64.5606 27.7213L64.5595 40.389Z" fill="#26245F"/>
</svg>
