<svg width="78" height="53" viewBox="0 0 78 53" fill="none" xmlns="http://www.w3.org/2000/svg">
<path d="M44.9298 22.9637V34.6693C44.9298 42.727 55.9955 48.5791 58.7285 49.9011C61.4601 48.5778 72.5273 42.7114 72.5273 34.6693V22.9637C69.9297 23.0285 67.3435 22.626 64.9141 21.7788C62.5846 20.9427 60.4735 19.6644 58.7187 18.0274C56.9561 19.6624 54.8404 20.9403 52.5078 21.7788C50.09 22.6235 47.5157 23.0261 44.9298 22.9637ZM58.7285 52.6461C58.5197 52.6446 58.3139 52.6004 58.1259 52.5168C57.4726 52.2322 42.1137 45.4305 42.1137 34.6654V21.5718C42.1139 21.3852 42.158 21.2008 42.2431 21.0313C42.3282 20.8618 42.4521 20.7113 42.6065 20.59C42.7601 20.4692 42.9402 20.3802 43.1346 20.3291C43.3289 20.278 43.533 20.2659 43.7329 20.2937C46.3576 20.5448 49.0099 20.2276 51.4771 19.3675C55.4337 17.9575 57.5486 15.3199 57.5697 15.2928C57.6997 15.126 57.8705 14.9897 58.0684 14.8946C58.2662 14.7996 58.4856 14.7485 58.7088 14.7456H58.7159C58.9406 14.7486 59.1612 14.8007 59.3597 14.8974C59.5583 14.9941 59.729 15.1327 59.8578 15.3018C59.8747 15.3238 61.9698 17.9511 65.9208 19.3598C68.4029 20.2229 71.0702 20.5414 73.7101 20.2899C73.9103 20.2626 74.1145 20.2753 74.3089 20.327C74.5033 20.3788 74.6833 20.4685 74.8365 20.59C74.9906 20.7114 75.1143 20.862 75.1991 21.0315C75.284 21.201 75.3279 21.3853 75.3279 21.5718V34.6693C75.3279 45.4357 59.969 52.2373 59.3157 52.5206C59.1277 52.6043 58.9219 52.6485 58.7131 52.65L58.7285 52.6461Z" fill="#C8C8D0"/>
<path d="M57.1314 39.9847C56.7688 39.9844 56.4202 39.8556 56.1584 39.6251L50.6249 34.7548C50.4914 34.6373 50.3843 34.4967 50.31 34.3412C50.2356 34.1856 50.1953 34.0181 50.1914 33.8483C50.1874 33.6784 50.22 33.5095 50.2871 33.3512C50.3542 33.1929 50.4547 33.0483 50.5826 32.9257C50.7106 32.803 50.8636 32.7047 51.0329 32.6364C51.2022 32.568 51.3845 32.531 51.5694 32.5274C51.7542 32.5238 51.9381 32.5537 52.1104 32.6154C52.2827 32.6771 52.4401 32.7693 52.5736 32.8869L57.0568 36.8336L65.1136 28.6013C65.2373 28.4749 65.3869 28.3721 65.5539 28.2989C65.7209 28.2257 65.902 28.1835 66.0867 28.1746C66.2715 28.1657 66.4564 28.1903 66.6308 28.2471C66.8052 28.3039 66.9657 28.3917 67.1031 28.5055C67.3805 28.7351 67.5473 29.0565 67.5669 29.399C67.5864 29.7415 67.4571 30.0771 67.2073 30.3321L58.1733 39.5527C58.0471 39.6813 57.8941 39.7854 57.7234 39.8589C57.5527 39.9325 57.3676 39.9739 57.1793 39.9809L57.1314 39.9847Z" fill="#C8C8D0"/>
<path d="M32.6696 45.605C32.3367 45.6052 32.0144 45.4971 31.76 45.2997C31.5707 45.1527 31.427 44.9623 31.3434 44.7479C31.2599 44.5335 31.2394 44.3026 31.2841 44.0786L34.4578 28.1676L24.5128 31.5309C16.1139 34.3328 7.32773 34.4078 6.96164 34.4078C6.66948 34.4006 6.38659 34.312 6.15047 34.1538C5.91435 33.9955 5.73616 33.7751 5.63951 33.5217L4.15966 29.7703C4.09549 29.6065 4.06729 29.4327 4.07671 29.2588C4.08614 29.085 4.13299 28.9146 4.21456 28.7575C4.35589 28.4876 4.59406 28.2706 4.88902 28.143L0.231215 21.626C0.114407 21.4626 0.0394195 21.2771 0.0118622 21.0833C-0.0156951 20.8895 0.00491094 20.6925 0.0721232 20.507C0.138964 20.3218 0.250578 20.1528 0.398591 20.0128C0.546605 19.8728 0.727156 19.7653 0.926777 19.6985L5.61978 18.1294C5.95539 18.0173 6.32483 18.0266 6.65329 18.1553L15.079 21.4578C16.2195 21.917 18.126 22.1175 19.8424 21.5445L65.3952 6.31131C67.91 5.47178 70.612 5.16908 72.9986 5.45885C75.5429 5.76801 77.3072 6.7162 77.8394 8.06023C78.3717 9.40426 77.5719 11.1441 75.5711 12.9189C73.8505 14.4466 71.5047 15.7764 69.1364 16.5681L66.0992 17.5822C65.9252 17.6403 65.7405 17.6663 65.5556 17.6587C65.3706 17.6512 65.1891 17.6102 65.0215 17.5381C64.8538 17.466 64.7033 17.3642 64.5785 17.2386C64.4537 17.113 64.357 16.966 64.2941 16.8061C64.2311 16.6463 64.203 16.4767 64.2113 16.307C64.2197 16.1372 64.2644 15.9707 64.3429 15.8168C64.4213 15.6629 64.532 15.5247 64.6686 15.4101C64.8052 15.2956 64.965 15.2068 65.1389 15.149L68.1705 14.1349C72.4424 12.7119 75.2965 9.73671 75.1839 8.91916C74.8882 8.23228 71.0048 7.18448 66.3527 8.74065L20.7998 23.9751C18.647 24.6956 15.9604 24.64 13.9568 23.8328L6.05347 20.7282L3.55702 21.5639L8.23592 28.1081C8.35419 28.2736 8.42953 28.4618 8.45614 28.6583C8.48274 28.8547 8.45989 29.0542 8.38938 29.2413C8.31877 29.4284 8.20233 29.5982 8.04902 29.7375C7.89571 29.8767 7.70966 29.9818 7.50516 30.0446L7.29536 30.1092L7.93177 31.7185C10.4113 31.624 17.1967 31.1765 23.5497 29.0511L35.7997 24.9543C36.0325 24.8764 36.2836 24.8563 36.5277 24.896C36.7717 24.9358 36.9999 25.034 37.1894 25.1807C37.3789 25.3279 37.5228 25.5184 37.6064 25.7331C37.6899 25.9478 37.7103 26.1789 37.6653 26.4032L34.4916 42.3142L36.9571 41.4888L38.8551 37.5266C38.9291 37.3709 39.0358 37.2301 39.1691 37.1123C39.3024 36.9945 39.4596 36.9019 39.6318 36.84C39.804 36.778 39.9878 36.7478 40.1727 36.751C40.3576 36.7543 40.54 36.7911 40.7095 36.8591C41.0512 36.9967 41.3195 37.2533 41.4554 37.5725C41.5914 37.8917 41.5839 38.2474 41.4346 38.5615L39.3014 43.0411C39.2251 43.2016 39.1141 43.3461 38.9752 43.4659C38.8363 43.5858 38.6723 43.6785 38.4932 43.7384L33.1427 45.5248C32.9889 45.5765 32.8263 45.6028 32.6626 45.6024L32.6696 45.605Z" fill="#C8C8D0"/>
<path d="M31.7899 16.1205C31.4625 16.1205 31.1454 16.0158 30.893 15.8243L15.4369 4.076C15.246 3.93086 15.1002 3.74199 15.0142 3.52849C14.9281 3.31498 14.9049 3.0844 14.9469 2.86003C14.989 2.63546 15.0949 2.42507 15.2539 2.25016C15.4128 2.07525 15.6193 1.94203 15.8523 1.86398L21.1944 0.0775482C21.3733 0.0181019 21.5633 -0.00761101 21.7532 0.00194611C21.9432 0.0115032 22.129 0.0561333 22.2997 0.133171L43.7118 9.84406C44.0465 9.99593 44.3018 10.2637 44.4217 10.5885C44.5416 10.9133 44.5162 11.2686 44.351 11.5762C44.1857 11.8837 43.8942 12.1183 43.5407 12.2284C43.1871 12.3385 42.8004 12.3152 42.4656 12.1634L21.5915 2.69445L19.1246 3.51976L32.6868 13.827C32.8296 13.9356 32.9476 14.069 33.0341 14.2196C33.1207 14.3703 33.1739 14.5351 33.1909 14.7047C33.2079 14.8743 33.1884 15.0453 33.1333 15.2079C33.0782 15.3705 32.9886 15.5215 32.8699 15.6522C32.7376 15.7989 32.5717 15.9169 32.3841 15.9979C32.1964 16.0788 31.9916 16.1207 31.7843 16.1205H31.7899Z" fill="#C8C8D0"/>
</svg>
