<svg width="57" height="64" viewBox="0 0 57 64" fill="none" xmlns="http://www.w3.org/2000/svg">
<path d="M54.3105 47.0536C54.3105 54.6308 43.7443 60.1578 41.1347 61.4061C38.5264 60.159 27.9577 54.6308 27.9577 47.0536V36.0232C30.4156 36.0842 32.8649 35.7069 35.1943 34.9083C37.382 34.1428 39.3973 32.9422 41.1224 31.3766C42.8408 32.9459 44.8527 34.1482 47.0383 34.9121C49.9489 35.9347 52.69 36.0619 54.3081 36.027V47.0573L54.3105 47.0536ZM56.5307 33.7872C56.2219 33.5521 55.8343 33.4499 55.4519 33.5029C52.9397 33.7411 50.4062 33.4437 48.0138 32.6299C44.2395 31.303 42.2393 28.8276 42.2245 28.8064C42.0925 28.6425 41.9263 28.5105 41.7378 28.4199C41.5493 28.3293 41.3433 28.2824 41.1347 28.2826H41.1274C40.92 28.2825 40.7152 28.3285 40.5273 28.4175C40.3394 28.5065 40.1731 28.6363 40.04 28.7977C40.0203 28.8239 38.0005 31.3093 34.2225 32.6374C31.8427 33.4507 29.3213 33.7481 26.8212 33.5104C26.6318 33.482 26.4388 33.492 26.2532 33.5398C26.0676 33.5875 25.8932 33.672 25.74 33.7884C25.5963 33.8954 25.4789 34.0347 25.3973 34.1955C25.3156 34.3563 25.2719 34.5342 25.2694 34.715V47.061C25.2694 57.206 39.9356 63.6159 40.5585 63.884C40.7412 63.9608 40.937 64.0003 41.1347 64C41.332 64.0001 41.5274 63.9607 41.7097 63.884C42.3339 63.6159 57 57.206 57 47.061V34.715C56.9974 34.5345 56.9537 34.357 56.8723 34.1965C56.7909 34.036 56.6739 33.8967 56.5307 33.7897V33.7872Z" fill="#26245F"/>
<path d="M54.3121 47.0536C54.3121 54.6308 43.7459 60.1578 41.1363 61.4061C38.5279 60.1591 27.9593 54.6308 27.9593 47.0536V36.0232C30.4172 36.0843 32.8665 35.7069 35.1959 34.9084C37.3836 34.1428 39.3989 32.9422 41.124 31.3767C42.8424 32.9459 44.8543 34.1483 47.0399 34.9121C49.9505 35.9347 52.6916 36.0619 54.3097 36.027V47.0574L54.3121 47.0536Z" fill="#E34F56"/>
<path d="M47.2399 41.3354L39.5413 49.0884L35.2595 45.3697C34.9904 45.1447 34.6509 45.0248 34.3023 45.0317C33.9538 45.0385 33.6191 45.1717 33.3588 45.4071C33.2378 45.516 33.1417 45.6504 33.0772 45.8009C33.0126 45.9513 32.9812 46.1143 32.985 46.2784C32.9889 46.4425 33.028 46.6037 33.0995 46.7509C33.1711 46.8981 33.2734 47.0276 33.3994 47.1306L38.6825 51.7198C38.9425 51.9412 39.2719 52.061 39.6113 52.0577H39.6617C40.0167 52.0496 40.3557 51.9063 40.6114 51.6562L49.2376 42.9679C49.3546 42.8546 49.4458 42.7169 49.5051 42.5643C49.5643 42.4116 49.5901 42.2477 49.5806 42.0839C49.5712 41.9202 49.5267 41.7605 49.4502 41.6159C49.3738 41.4714 49.2673 41.3454 49.1381 41.2469C48.863 41.0292 48.5204 40.9187 48.172 40.9352C47.8236 40.9516 47.4926 41.094 47.2386 41.3367L47.2399 41.3354Z" fill="white"/>
<path d="M37.6385 9.75267H17.7348C16.9976 9.75267 16.3906 10.2989 16.3906 10.9711C16.3906 11.6432 16.9927 12.1907 17.7348 12.1907H37.6385C38.3757 12.1907 38.99 11.6445 38.99 10.9711C38.99 10.2976 38.3868 9.75267 37.6385 9.75267Z" fill="#26245F"/>
<path d="M38.9838 20.2352C38.9838 19.5618 38.3805 19.0155 37.6323 19.0155H8.59121C7.85403 19.0155 7.24587 19.5618 7.24587 20.2352C7.24587 20.9086 7.84912 21.4536 8.59121 21.4536H37.6323C38.3695 21.4536 38.9838 20.9074 38.9838 20.2352Z" fill="#26245F"/>
<path d="M35.2254 29.4982C35.2254 28.826 34.6222 28.2798 33.8801 28.2798H8.60348C7.86631 28.2798 7.25814 28.826 7.25814 29.4982C7.25814 30.1703 7.86139 30.7178 8.60348 30.7178H33.8739C34.6111 30.7178 35.2193 30.1716 35.2193 29.4982H35.2254Z" fill="#26245F"/>
<path d="M22.0431 37.5429H8.59822C7.86105 37.5429 7.25288 38.0891 7.25288 38.7625C7.25288 39.436 7.85613 39.9809 8.59822 39.9809H22.0431C22.7803 39.9809 23.3872 39.4347 23.3872 38.7625C23.3872 38.0904 22.7852 37.5429 22.0431 37.5429Z" fill="#26245F"/>
<path d="M22.0431 46.8081H8.59822C7.86105 46.8081 7.25288 47.3542 7.25288 48.0264C7.25288 48.6986 7.85613 49.2448 8.59822 49.2448H22.0431C22.7803 49.2448 23.3872 48.6998 23.3872 48.0264C23.3872 47.353 22.7852 46.8081 22.0431 46.8081Z" fill="#26245F"/>
<path d="M9.67053 3.81616V8.77576H4.46482L9.67053 3.81616ZM27.4181 56.5573H2.67965V11.2138H11.022C11.7653 11.2138 12.3674 10.6676 12.3674 9.99415V2.44438H43.561V27.311C43.561 27.9831 44.163 28.5294 44.9051 28.5294C45.6472 28.5294 46.2492 27.9831 46.2492 27.311V1.21978C46.2492 0.546358 45.6472 0.000106297 44.9051 0.000106297H10.549C10.1894 -0.00431468 9.84138 0.129311 9.57469 0.374228L0.368589 9.14489C0.253718 9.25164 0.161707 9.38126 0.0982963 9.52565C0.034886 9.67003 0.00143352 9.82609 0 9.98417V57.772C0 58.4454 0.602021 58.9916 1.34411 58.9916H27.4279C28.1712 58.9916 28.7794 58.4454 28.7794 57.772C28.7794 57.0985 28.1774 56.5536 27.4279 56.5536L27.4181 56.5573Z" fill="#26245F"/>
<path d="M9.67364 3.81645V8.7773H4.46794L9.67364 3.81645Z" fill="#26245F"/>
</svg>
