<svg width="57" height="64" viewBox="0 0 57 64" fill="none" xmlns="http://www.w3.org/2000/svg">
<path d="M54.3108 47.0544C54.3108 54.6318 43.7456 60.1589 41.1363 61.4073C38.5282 60.1602 27.9606 54.6318 27.9606 47.0544V36.0238C30.4182 36.0843 32.8672 35.7069 35.1965 34.9089C37.3851 34.1425 39.4012 32.9406 41.1265 31.3734C42.8447 32.9427 44.8564 34.145 47.0417 34.9089C49.9521 35.9315 52.6929 36.0575 54.3108 36.0238V47.0544ZM56.5307 33.7878C56.222 33.5526 55.8345 33.4505 55.4521 33.5034C52.9401 33.7416 50.4068 33.4443 48.0147 32.6304C44.2407 31.3035 42.2407 28.8268 42.226 28.8068C42.094 28.6429 41.9278 28.5109 41.7393 28.4203C41.5508 28.3297 41.3448 28.2828 41.1363 28.2831H41.1289C40.9216 28.2829 40.7168 28.329 40.5289 28.418C40.3411 28.507 40.1748 28.6367 40.0417 28.7981C40.022 28.8243 38.0024 31.3085 34.2247 32.6379C31.8452 33.4512 29.324 33.7486 26.8242 33.5109C26.6348 33.4826 26.4418 33.4926 26.2563 33.5403C26.0707 33.588 25.8963 33.6725 25.7431 33.789C25.5995 33.8958 25.4823 34.035 25.4007 34.1955C25.3191 34.3561 25.2752 34.5337 25.2726 34.7144V47.0607C25.2726 57.2058 39.9373 63.6146 40.5601 63.8828C40.7425 63.9607 40.9384 64.0006 41.1363 64C41.3337 64.0004 41.5293 63.9605 41.7112 63.8828C42.3353 63.6146 57 57.2058 57 47.0607V34.7144C56.9972 34.534 56.9535 34.3568 56.872 34.1965C56.7906 34.0362 56.6738 33.8971 56.5307 33.7902V33.7878Z" fill="#C8C8D0"/>
<path d="M47.2387 41.3364L39.5409 49.0897L35.2595 45.3708C34.9906 45.1457 34.6512 45.0255 34.3027 45.0322C33.9541 45.0388 33.6194 45.1717 33.359 45.407C33.2381 45.5159 33.142 45.6503 33.0774 45.8008C33.0129 45.9512 32.9814 46.1142 32.9853 46.2783C32.9891 46.4424 33.0282 46.6036 33.0998 46.7508C33.1713 46.898 33.2736 47.0275 33.3996 47.1305L38.6821 51.7198C38.9421 51.9414 39.2714 52.0616 39.6109 52.059H39.6613C40.0161 52.0505 40.355 51.9072 40.6109 51.6574L49.2362 42.9689C49.3532 42.8556 49.4445 42.7177 49.5037 42.565C49.563 42.4123 49.5888 42.2483 49.5793 42.0844C49.5698 41.9205 49.5253 41.7607 49.4489 41.616C49.3725 41.4714 49.266 41.3453 49.1367 41.2467C48.8615 41.0294 48.5188 40.9192 48.1705 40.9359C47.8223 40.9526 47.4913 41.0951 47.2375 41.3377L47.2387 41.3364Z" fill="#C8C8D0"/>
<path d="M37.6402 9.75241H17.7384C17.0013 9.75241 16.3944 10.2986 16.3944 10.9708C16.3944 11.643 16.9964 12.1892 17.7384 12.1892H37.6402C38.3835 12.1892 38.9916 11.6443 38.9916 10.9708C38.9916 10.2974 38.3896 9.75241 37.6402 9.75241Z" fill="#C8C8D0"/>
<path d="M38.9843 20.2355C38.9843 19.5621 38.3824 19.0159 37.633 19.0159H8.60215C7.86505 19.0159 7.25079 19.5621 7.25079 20.2355C7.25079 20.909 7.85399 21.454 8.60215 21.454H37.6404C38.3836 21.454 38.9917 20.9077 38.9917 20.2355H38.9843Z" fill="#C8C8D0"/>
<path d="M35.2214 29.499C35.2214 28.8256 34.6182 28.2806 33.8701 28.2806H8.60215C7.86505 28.2806 7.25079 28.8256 7.25079 29.499C7.25079 30.1724 7.85399 30.7174 8.60215 30.7174H33.8762C34.6133 30.7174 35.2276 30.1724 35.2276 29.499H35.2214Z" fill="#C8C8D0"/>
<path d="M22.0457 37.544H8.60215C7.86505 37.544 7.25079 38.0903 7.25079 38.7625C7.25079 39.4346 7.85399 39.9821 8.60215 39.9821H22.0457C22.7828 39.9821 23.3897 39.4359 23.3897 38.7625C23.3897 38.089 22.7877 37.544 22.0457 37.544Z" fill="#C8C8D0"/>
<path d="M22.0457 46.8075H8.60215C7.86505 46.8075 7.25079 47.3537 7.25079 48.0271C7.25079 48.7006 7.85399 49.2456 8.60215 49.2456H22.0457C22.7828 49.2456 23.3897 48.6993 23.3897 48.0271C23.3897 47.355 22.7877 46.8075 22.0457 46.8075Z" fill="#C8C8D0"/>
<path d="M9.67695 3.81748V8.7772H4.47177L9.67695 3.81748ZM27.4227 56.5598H2.68674V11.2153H11.0222C11.7593 11.2153 12.3662 10.669 12.3662 9.99559V2.43818H43.5567V27.3053C43.5567 27.9775 44.1587 28.5238 44.9007 28.5238C45.6427 28.5238 46.2447 27.9775 46.2447 27.3053V1.21976C46.2447 0.546328 45.6427 9.49539e-05 44.9007 9.49539e-05H10.548C10.1884 -0.00407941 9.84054 0.129516 9.57375 0.374225L0.368552 9.14509C0.253693 9.25184 0.161706 9.38144 0.0983015 9.52583C0.0348975 9.67021 0.00143338 9.82631 0 9.98438V57.7732C0 58.4467 0.601969 58.9929 1.34399 58.9929H27.4252C28.1684 58.9929 28.7765 58.4467 28.7765 57.7732C28.7765 57.0998 28.1746 56.5548 27.4252 56.5548L27.4227 56.5598Z" fill="#C8C8D0"/>
</svg>
