<svg width="63" height="51" viewBox="0 0 63 51" fill="none" xmlns="http://www.w3.org/2000/svg">
<path d="M33.8278 51C33.6194 51.0002 33.4149 50.9438 33.2367 50.8368L32.5447 50.4196C32.2126 50.2195 29.1776 48.3782 25.2393 45.4024C24.9991 45.2211 24.8414 44.9526 24.8009 44.656C24.7604 44.3595 24.8405 44.0591 25.0235 43.8211C25.2065 43.583 25.4775 43.4267 25.7768 43.3866C26.076 43.3465 26.3791 43.4258 26.6194 43.6072C30.4713 46.5132 33.4041 48.2966 33.7268 48.4901L33.8291 48.552L33.9301 48.4914C38.8817 45.4086 43.5357 41.8795 47.8328 37.9491C53.7129 32.516 60.7168 24.2835 60.7168 15.9194C60.7168 12.883 59.696 9.93322 57.8156 7.53581C55.9352 5.1384 53.3024 3.43004 50.3329 2.68052C47.3635 1.931 44.2267 2.18305 41.418 3.39687C38.6092 4.61068 36.2886 6.71708 34.8226 9.38338C34.7245 9.56011 34.5803 9.70749 34.4051 9.81015C34.2298 9.9128 34.03 9.96696 33.8264 9.96696C33.6229 9.96696 33.423 9.9128 33.2478 9.81015C33.0726 9.70749 32.9284 9.56011 32.8303 9.38338C31.4221 6.82193 29.2235 4.77433 26.5563 3.54023C23.889 2.30612 20.8932 1.95031 18.0072 2.52487C15.1212 3.09943 12.4966 4.57419 10.5174 6.73333C8.53817 8.89247 7.30833 11.6226 7.00784 14.5242C6.97719 14.822 6.82843 15.0955 6.59428 15.2846C6.36013 15.4736 6.05979 15.5628 5.7593 15.5324C5.45881 15.5021 5.1828 15.3547 4.99199 15.1226C4.80118 14.8906 4.71123 14.593 4.74187 14.2952C5.07502 11.073 6.39229 8.02822 8.51781 5.56739C10.6433 3.10655 13.4759 1.34684 16.6373 0.523205C19.7987 -0.300427 23.1384 -0.148777 26.2106 0.957926C29.2827 2.06463 31.941 4.07371 33.8304 6.71686C35.8008 3.96065 38.605 1.89701 41.8373 0.824512C45.0696 -0.247988 48.5625 -0.273734 51.8105 0.750977C55.0586 1.77569 57.8935 3.79773 59.905 6.52458C61.9166 9.25144 63.0005 12.5417 63 15.9194C63 19.9994 61.5562 24.3322 58.7098 28.7979C56.4517 32.3291 53.3224 35.963 49.3868 39.5995C42.6447 45.8302 35.864 49.9681 35.1122 50.4196L34.4215 50.8368C34.2425 50.9442 34.0371 51.0007 33.8278 51Z" fill="#C8C8D0"/>
<path d="M52.6811 17.0473C52.5316 17.0473 52.3836 17.0181 52.2455 16.9615C52.1074 16.9048 51.9819 16.8217 51.8762 16.7169C51.7705 16.6122 51.6866 16.4879 51.6294 16.351C51.5722 16.2142 51.5428 16.0675 51.5428 15.9194C51.5414 14.7085 51.0553 13.5477 50.1913 12.6915C49.3272 11.8353 48.1557 11.3537 46.9338 11.3523C46.6319 11.3523 46.3423 11.2335 46.1289 11.022C45.9154 10.8104 45.7954 10.5235 45.7954 10.2244C45.7954 9.92525 45.9154 9.63835 46.1289 9.42682C46.3423 9.21529 46.6319 9.09645 46.9338 9.09645C48.7593 9.09854 50.5095 9.81806 51.8003 11.0972C53.0911 12.3762 53.8173 14.1105 53.8194 15.9194C53.8194 16.2185 53.6994 16.5054 53.486 16.7169C53.2725 16.9285 52.983 17.0473 52.6811 17.0473Z" fill="#C8C8D0"/>
<path d="M13.1139 35.6905C12.9642 35.6906 12.8159 35.6615 12.6775 35.6048C12.5392 35.5482 12.4135 35.465 12.3076 35.3602L7.70655 30.8011C7.49307 30.5893 7.37323 30.3023 7.37335 30.003C7.37348 29.7037 7.49358 29.4168 7.70723 29.2052C7.92088 28.9937 8.21058 28.8749 8.51261 28.875C8.81463 28.8752 9.10425 28.9942 9.31773 29.2059L13.1139 32.9674L19.8294 26.3117C20.0431 26.1001 20.3328 25.9814 20.6349 25.9815C20.7844 25.9816 20.9324 26.0108 21.0706 26.0676C21.2087 26.1243 21.3342 26.2075 21.4399 26.3123C21.5456 26.4172 21.6295 26.5416 21.6866 26.6785C21.7438 26.8154 21.7732 26.9622 21.7732 27.1104C21.7731 27.2586 21.7436 27.4053 21.6863 27.5422C21.629 27.6791 21.5451 27.8034 21.4393 27.9082L13.9188 35.3602C13.813 35.4649 13.6876 35.548 13.5495 35.6047C13.4114 35.6614 13.2633 35.6905 13.1139 35.6905Z" fill="#C8C8D0"/>
<path d="M14.1751 48.3111C13.9527 48.3111 13.7352 48.2466 13.5494 48.1255L12.2464 47.274C11.573 46.8344 5.67296 42.9728 3.64207 41.4829C1.36147 39.8127 0 36.8764 0 33.6479V19.8033C0 19.6552 0.029442 19.5085 0.0866472 19.3717C0.143852 19.2348 0.227722 19.1105 0.333423 19.0057C0.439125 18.901 0.564606 18.8179 0.702712 18.7612C0.840817 18.7045 0.988831 18.6754 1.13832 18.6754C6.60139 18.6754 13.41 13.5016 13.4777 13.449C13.6774 13.2959 13.9226 13.2129 14.1751 13.2129C14.4275 13.2129 14.6727 13.2959 14.8724 13.449C14.9415 13.5016 21.7487 18.6754 27.2118 18.6754C27.5138 18.6754 27.8035 18.7942 28.0171 19.0057C28.2308 19.2172 28.3511 19.504 28.3514 19.8033V33.6518C28.3514 36.8869 26.9899 39.8167 24.7093 41.4869C22.6785 42.9728 16.7784 46.8344 16.1116 47.27L14.802 48.1255C14.6158 48.2468 14.3979 48.3114 14.1751 48.3111ZM2.27796 20.8747V33.6518C2.27796 36.1749 3.29406 38.4255 4.99554 39.6719C6.97861 41.1197 12.8322 44.9536 13.4963 45.3853L14.179 45.8315L14.8564 45.3906C15.5206 44.9536 21.3768 41.1236 23.3572 39.6719C25.0587 38.4255 26.0748 36.1749 26.0748 33.6518V20.8747C21.1895 20.3956 16.024 17.0447 14.1764 15.7417C12.3341 17.0447 7.16324 20.3956 2.27796 20.8747Z" fill="#C8C8D0"/>
</svg>
