<svg width="63" height="51" viewBox="0 0 63 51" fill="none" xmlns="http://www.w3.org/2000/svg">
<path d="M33.8257 51C33.6175 51.0002 33.4132 50.9436 33.2351 50.8366L32.5422 50.4202C32.2103 50.2205 29.1756 48.3786 25.2357 45.4017C25.113 45.3132 25.0093 45.2014 24.9308 45.0728C24.8523 44.9441 24.8005 44.8012 24.7785 44.6524C24.7565 44.5036 24.7647 44.352 24.8026 44.2065C24.8406 44.0609 24.9075 43.9243 24.9995 43.8047C25.0915 43.6851 25.2067 43.5849 25.3383 43.51C25.4698 43.4351 25.6152 43.3871 25.7658 43.3687C25.9164 43.3502 26.0692 43.3618 26.2153 43.4027C26.3613 43.4435 26.4976 43.5129 26.6162 43.6067C30.4623 46.5132 33.4054 48.2964 33.7233 48.4896L33.8311 48.5516L33.9324 48.4907C34.2244 48.3146 41.1462 44.1299 47.8341 37.9486C53.7149 32.5158 60.724 24.2812 60.724 15.9194C60.7252 12.8822 59.7048 9.93108 57.8241 7.53264C55.9433 5.13419 53.3096 3.42513 50.339 2.67558C47.3684 1.92603 44.2304 2.17871 41.421 3.39372C38.6116 4.60873 36.2909 6.71677 34.8258 9.38466C34.7279 9.56246 34.5834 9.71083 34.4076 9.81422C34.2319 9.9176 34.0312 9.97219 33.8268 9.97219C33.6224 9.97219 33.4217 9.9176 33.2459 9.81422C33.0701 9.71083 32.9257 9.56246 32.8278 9.38466C31.4193 6.82365 29.2206 4.7765 26.5533 3.54268C23.8861 2.30885 20.8904 1.95312 18.0045 2.52756C15.1186 3.10201 12.4939 4.57647 10.5145 6.7352C8.53516 8.89393 7.30497 11.6236 7.00394 14.5249C6.99344 14.6757 6.95243 14.8229 6.88336 14.9577C6.8143 15.0925 6.71858 15.2121 6.6019 15.3095C6.48523 15.4069 6.34997 15.4801 6.20419 15.5247C6.0584 15.5693 5.90505 15.5843 5.75327 15.569C5.60149 15.5537 5.45436 15.5083 5.32065 15.4355C5.18693 15.3627 5.06935 15.264 4.9749 15.1453C4.88046 15.0265 4.81107 14.8902 4.77086 14.7444C4.73066 14.5985 4.72046 14.4462 4.74087 14.2964C5.07398 11.0745 6.3911 8.02996 8.5164 5.56925C10.6417 3.10854 13.474 1.34876 16.6352 0.524866C19.7964 -0.299031 23.136 -0.147816 26.2082 0.958283C29.2804 2.06438 31.939 4.07274 33.8289 6.71523C35.3132 4.63978 37.2777 2.94698 39.5581 1.77861C41.8384 0.610247 44.3682 0.000330089 46.9354 0C55.7937 0 63 7.14022 63 15.9173C63 19.9973 61.5559 24.3303 58.7088 28.7957C56.4586 32.3257 53.3205 35.9604 49.386 39.5962C42.6442 45.8277 35.8625 49.9653 35.1113 50.4169L34.4195 50.8334C34.2409 50.9421 34.0353 50.9998 33.8257 51Z" fill="#26245F"/>
<path d="M52.6783 17.0481C52.3765 17.0481 52.087 16.9294 51.8736 16.7179C51.6602 16.5064 51.5403 16.2196 51.5403 15.9206C51.5388 14.7098 51.0528 13.549 50.1887 12.6929C49.3246 11.8367 48.1531 11.3551 46.9311 11.3537C46.7787 11.3584 46.6268 11.3326 46.4846 11.278C46.3424 11.2234 46.2126 11.1411 46.1031 11.0359C45.9936 10.9307 45.9066 10.8047 45.8471 10.6655C45.7877 10.5264 45.757 10.3767 45.757 10.2256C45.757 10.0745 45.7877 9.92486 45.8471 9.78568C45.9066 9.6465 45.9936 9.52056 46.1031 9.41535C46.2126 9.31013 46.3424 9.22782 46.4846 9.17322C46.6268 9.11862 46.7787 9.09287 46.9311 9.09752C48.7566 9.10034 50.5065 9.82011 51.7973 11.0991C53.0881 12.378 53.8145 14.1118 53.8174 15.9206C53.8174 16.0687 53.7879 16.2154 53.7306 16.3523C53.6734 16.4892 53.5894 16.6135 53.4837 16.7183C53.3779 16.823 53.2523 16.906 53.1141 16.9626C52.9759 17.0192 52.8278 17.0483 52.6783 17.0481Z" fill="#26245F"/>
<path d="M26.0726 20.8759V33.6528C26.0726 36.1749 25.0563 38.4258 23.3536 39.6719C21.3708 41.124 15.5169 44.9541 14.8499 45.3909L14.1731 45.8318L13.4909 45.3866C12.8303 44.9541 6.97651 41.124 4.99255 39.6719C3.29093 38.4279 2.2747 36.1749 2.2747 33.6528V20.8759C7.16079 20.3965 12.326 17.0458 14.1731 15.7431C16.0213 17.0458 21.1854 20.3965 26.0726 20.8759Z" fill="#E34F56"/>
<path d="M13.1103 35.6912C12.9608 35.6914 12.8126 35.6622 12.6745 35.6054C12.5363 35.5486 12.4109 35.4652 12.3053 35.3602L7.70481 30.8019C7.49131 30.5904 7.37137 30.3034 7.37137 30.0043C7.37137 29.7051 7.49131 29.4182 7.70481 29.2067C7.91832 28.9951 8.20789 28.8763 8.50982 28.8763C8.81176 28.8763 9.10133 28.9951 9.31483 29.2067L13.1103 32.9673L19.8274 26.313C20.0409 26.1015 20.3304 25.9826 20.6324 25.9826C20.9343 25.9826 21.2239 26.1015 21.4374 26.313C21.6509 26.5245 21.7708 26.8114 21.7708 27.1106C21.7708 27.4098 21.6509 27.6967 21.4374 27.9083L13.9197 35.3602C13.8137 35.466 13.6876 35.5497 13.5486 35.6065C13.4097 35.6634 13.2607 35.6922 13.1103 35.6912Z" fill="white"/>
<path d="M27.2097 18.6744C24.4779 18.6744 21.4098 17.3814 19.0195 16.0808C17.5775 15.2995 16.1919 14.4201 14.8727 13.4488C14.6731 13.2959 14.4278 13.2129 14.1755 13.2129C13.9231 13.2129 13.6779 13.2959 13.4782 13.4488C13.4103 13.5011 6.60172 18.6744 1.138 18.6744C0.988469 18.6744 0.840399 18.7036 0.70226 18.7603C0.564121 18.8171 0.43862 18.9003 0.332933 19.0051C0.227245 19.1099 0.143443 19.2343 0.0863164 19.3712C0.0291898 19.5082 -0.000141095 19.6549 5.103e-07 19.803V33.651C5.103e-07 36.8863 1.36108 39.8141 3.64248 41.4852C5.67278 42.9715 11.5729 46.8326 12.2465 47.2726L13.5494 48.1268C13.7355 48.2479 13.9533 48.3125 14.176 48.3125C14.3987 48.3125 14.6166 48.2479 14.8027 48.1268L16.112 47.2726C16.778 46.8369 22.6793 42.9758 24.7096 41.4895C26.9899 39.8184 28.352 36.8906 28.352 33.6552V19.8052C28.3523 19.6565 28.323 19.5093 28.2656 19.3719C28.2083 19.2345 28.1242 19.1097 28.018 19.0046C27.9119 18.8995 27.7858 18.8163 27.6471 18.7596C27.5084 18.703 27.3598 18.674 27.2097 18.6744ZM26.0717 33.651C26.0717 36.173 25.0555 38.4239 23.3528 39.67C21.3699 41.1222 15.5161 44.9523 14.849 45.389L14.1722 45.83L13.4901 45.3847C12.8295 44.9523 6.97566 41.1222 4.9917 39.67C3.29008 38.4282 2.27385 36.1752 2.27385 33.6531V20.8762C7.15994 20.3968 12.3251 17.0461 14.1722 15.7434C16.0204 17.0461 21.1845 20.3968 26.0717 20.8762V33.651Z" fill="#26245F"/>
<path d="M46.1397 11.0352L51.8523 16.6944L52.0937 12.2226L46.1397 11.0352Z" fill="#26245F"/>
</svg>
