<svg width="56" height="56" viewBox="0 0 56 56" fill="none" xmlns="http://www.w3.org/2000/svg">
<path d="M27.9994 55.9999C21.5214 55.9997 15.244 53.7535 10.2365 49.6438C5.22912 45.5342 1.80159 39.8154 0.53794 33.4619C-0.725706 27.1084 0.25272 20.5133 3.30651 14.8004C6.3603 9.0874 11.3005 4.61004 17.2854 2.13116C23.2703 -0.34772 29.9295 -0.674727 36.1285 1.20583C42.3274 3.08639 47.6825 7.05816 51.2814 12.4444C54.8802 17.8307 56.5001 24.2982 55.8651 30.7449C55.23 37.1916 52.3793 43.2187 47.7986 47.7992C45.2046 50.4074 42.1189 52.4751 38.7204 53.8827C35.3219 55.2904 31.6779 56.01 27.9994 55.9999ZM27.9994 2.02261C13.6753 2.02261 2.02202 13.675 2.02202 27.9991C2.02202 42.3232 13.6753 53.9756 27.9994 53.9756C42.3234 53.9756 53.9758 42.3223 53.9758 27.9991C53.9758 13.6759 42.3226 2.02261 27.9994 2.02261Z" fill="#26245F"/>
<path d="M37.1632 50.318C36.9738 50.318 36.7881 50.2647 36.6274 50.1642C36.4668 50.0638 36.3375 49.9203 36.2544 49.75C36.1713 49.5798 36.1377 49.3896 36.1574 49.2011C36.1771 49.0127 36.2493 48.8336 36.3658 48.6841C40.2462 43.7018 42.4727 36.1623 42.4727 27.9998C42.4727 20.0169 40.3234 12.5755 36.5767 7.59226C36.4903 7.48658 36.4261 7.36451 36.3881 7.2334C36.3501 7.1023 36.3389 6.96485 36.3554 6.82934C36.3718 6.69382 36.4155 6.56305 36.4838 6.44484C36.5521 6.32664 36.6436 6.22348 36.7527 6.14153C36.8619 6.05958 36.9865 6.00051 37.1191 5.96794C37.2516 5.93538 37.3894 5.92997 37.5241 5.95201C37.6588 5.97405 37.7877 6.02312 37.903 6.09624C38.0183 6.16935 38.1176 6.26501 38.1949 6.37748C42.1994 11.7043 44.4962 19.5857 44.4962 28.0015C44.4962 36.6057 42.1152 44.5981 37.9624 49.9293C37.8677 50.0508 37.7464 50.149 37.6079 50.2163C37.4694 50.2837 37.3173 50.3185 37.1632 50.318Z" fill="#26245F"/>
<path d="M18.8338 50.317C18.6796 50.3171 18.5275 50.282 18.389 50.2143C18.2505 50.1466 18.1293 50.0482 18.0346 49.9265C13.8827 44.5953 11.5017 36.6029 11.5017 27.9996C11.5017 19.5829 13.7985 11.7024 17.8038 6.37469C17.8821 6.26459 17.9816 6.17129 18.0965 6.10027C18.2115 6.02925 18.3394 5.98194 18.4729 5.96118C18.6064 5.94042 18.7427 5.9466 18.8738 5.97936C19.0048 6.01212 19.128 6.07079 19.236 6.15192C19.344 6.23305 19.4347 6.33502 19.5027 6.45176C19.5707 6.5685 19.6146 6.69765 19.6319 6.83164C19.6491 6.96562 19.6394 7.10173 19.6032 7.23189C19.567 7.36205 19.5051 7.48362 19.4212 7.58948C15.6745 12.5736 13.526 20.0116 13.526 27.9979C13.526 36.1595 15.7517 43.6982 19.6321 48.6814C19.7483 48.831 19.8202 49.0101 19.8397 49.1985C19.8592 49.3869 19.8254 49.577 19.7423 49.7472C19.6591 49.9174 19.5299 50.0608 19.3693 50.1612C19.2087 50.2617 19.0232 50.315 18.8338 50.3153V50.317Z" fill="#26245F"/>
<path d="M27.9993 52.4575C27.8664 52.4576 27.7347 52.4315 27.6119 52.3807C27.489 52.3299 27.3774 52.2554 27.2834 52.1614C27.1893 52.0675 27.1147 51.9559 27.0638 51.8331C27.0129 51.7103 26.9867 51.5786 26.9867 51.4457V41.514C26.9944 41.2506 27.1045 41.0007 27.2934 40.8172C27.4824 40.6336 27.7355 40.531 27.9989 40.531C28.2623 40.531 28.5154 40.6336 28.7044 40.8172C28.8933 41.0007 29.0034 41.2506 29.0111 41.514V51.4483C29.0104 51.7162 28.9035 51.9729 28.7138 52.1621C28.5242 52.3512 28.2672 52.4575 27.9993 52.4575Z" fill="#26245F"/>
<path d="M27.9993 15.493C27.8664 15.4931 27.7347 15.467 27.6119 15.4162C27.489 15.3654 27.3774 15.2909 27.2834 15.1969C27.1893 15.103 27.1147 14.9914 27.0638 14.8686C27.0129 14.7458 26.9867 14.6141 26.9867 14.4812V4.54861C26.9944 4.28529 27.1045 4.03534 27.2934 3.85182C27.4824 3.66829 27.7355 3.56562 27.9989 3.56562C28.2623 3.56562 28.5154 3.66829 28.7044 3.85182C28.8933 4.03534 29.0034 4.28529 29.0111 4.54861V14.4829C29.0106 14.751 28.9038 15.0079 28.7141 15.1972C28.5244 15.3866 28.2674 15.493 27.9993 15.493Z" fill="#26245F"/>
<path d="M51.4482 29.0109H39.4913C39.2229 29.0109 38.9656 28.9043 38.7759 28.7146C38.5861 28.5248 38.4795 28.2675 38.4795 27.9992C38.4795 27.7309 38.5861 27.4735 38.7759 27.2838C38.9656 27.094 39.2229 26.9874 39.4913 26.9874H51.4482C51.5811 26.9874 51.7127 27.0136 51.8354 27.0645C51.9582 27.1153 52.0697 27.1898 52.1636 27.2838C52.2576 27.3777 52.3321 27.4892 52.383 27.612C52.4338 27.7347 52.46 27.8663 52.46 27.9992C52.46 28.132 52.4338 28.2636 52.383 28.3863C52.3321 28.5091 52.2576 28.6206 52.1636 28.7146C52.0697 28.8085 51.9582 28.8831 51.8354 28.9339C51.7127 28.9848 51.5811 29.0109 51.4482 29.0109Z" fill="#26245F"/>
<path d="M16.5084 29.0109H4.54965C4.41679 29.0109 4.28522 28.9848 4.16247 28.9339C4.03972 28.8831 3.92819 28.8085 3.83424 28.7146C3.74029 28.6206 3.66576 28.5091 3.61492 28.3863C3.56407 28.2636 3.5379 28.132 3.5379 27.9992C3.5379 27.8663 3.56407 27.7347 3.61492 27.612C3.66576 27.4892 3.74029 27.3777 3.83424 27.2838C3.92819 27.1898 4.03972 27.1153 4.16247 27.0645C4.28522 27.0136 4.41679 26.9874 4.54965 26.9874H16.5084C16.6412 26.9874 16.7728 27.0136 16.8955 27.0645C17.0183 27.1153 17.1298 27.1898 17.2238 27.2838C17.3177 27.3777 17.3922 27.4892 17.4431 27.612C17.4939 27.7347 17.5201 27.8663 17.5201 27.9992C17.5201 28.132 17.4939 28.2636 17.4431 28.3863C17.3922 28.5091 17.3177 28.6206 17.2238 28.7146C17.1298 28.8085 17.0183 28.8831 16.8955 28.9339C16.7728 28.9848 16.6412 29.0109 16.5084 29.0109Z" fill="#26245F"/>
<path d="M45.6806 13.5254H10.3173C10.0539 13.5177 9.804 13.4076 9.62048 13.2187C9.43695 13.0297 9.33429 12.7766 9.33429 12.5132C9.33429 12.2498 9.43695 11.9967 9.62048 11.8077C9.804 11.6188 10.0539 11.5088 10.3173 11.501H45.6806C45.816 11.4971 45.9508 11.5203 46.0771 11.5694C46.2033 11.6185 46.3185 11.6924 46.4157 11.7868C46.5129 11.8812 46.5901 11.9941 46.6429 12.1189C46.6956 12.2436 46.7228 12.3777 46.7228 12.5132C46.7228 12.6487 46.6956 12.7828 46.6429 12.9075C46.5901 13.0323 46.5129 13.1453 46.4157 13.2396C46.3185 13.334 46.2033 13.4079 46.0771 13.457C45.9508 13.5061 45.816 13.5293 45.6806 13.5254Z" fill="#26245F"/>
<path d="M45.6805 44.4973H10.3181C10.0548 44.4896 9.80486 44.3796 9.62133 44.1906C9.43781 44.0016 9.33514 43.7486 9.33514 43.4851C9.33514 43.2217 9.43781 42.9687 9.62133 42.7797C9.80486 42.5907 10.0548 42.4807 10.3181 42.473H45.6805C45.816 42.469 45.9508 42.4923 46.0771 42.5414C46.2033 42.5904 46.3185 42.6644 46.4157 42.7587C46.5128 42.8531 46.5901 42.966 46.6429 43.0908C46.6956 43.2156 46.7228 43.3497 46.7228 43.4851C46.7228 43.6206 46.6956 43.7547 46.6429 43.8795C46.5901 44.0043 46.5128 44.1172 46.4157 44.2116C46.3185 44.306 46.2033 44.3799 46.0771 44.4289C45.9508 44.478 45.816 44.5013 45.6805 44.4973Z" fill="#26245F"/>
<path d="M34.6937 22.5454V29.868C34.6937 31.2667 34.1445 32.5067 33.2247 33.187C32.0255 34.0729 28.3655 36.4842 28.212 36.5883L27.9985 36.7289L27.7859 36.5883C27.6306 36.4859 23.9724 34.072 22.7732 33.187C21.8534 32.5067 21.3042 31.2667 21.3042 29.868V22.5454C24.0183 22.1706 26.7907 20.4343 27.9985 19.5952C29.2064 20.4343 31.9795 22.1749 34.6937 22.5454Z" fill="#E34F56"/>
<path d="M27.3711 31.4237C27.2381 31.4238 27.1064 31.3976 26.9836 31.3467C26.8607 31.2958 26.7491 31.2211 26.6552 31.1269L23.935 28.4067C23.7452 28.2169 23.6386 27.9596 23.6386 27.6913C23.6386 27.4229 23.7452 27.1656 23.935 26.9758C24.1247 26.7861 24.3821 26.6795 24.6504 26.6795C24.9187 26.6795 25.1761 26.7861 25.3658 26.9758L27.3711 28.9803L31.1022 25.2491C31.1962 25.1552 31.3078 25.0806 31.4306 25.0298C31.5534 24.979 31.685 24.9528 31.8179 24.9529C31.9508 24.9529 32.0824 24.9791 32.2052 25.03C32.328 25.0809 32.4395 25.1555 32.5335 25.2495C32.6274 25.3436 32.702 25.4551 32.7528 25.5779C32.8036 25.7007 32.8297 25.8324 32.8297 25.9653C32.8297 26.0982 32.8034 26.2298 32.7525 26.3526C32.7016 26.4753 32.6271 26.5869 32.5331 26.6808L28.0869 31.1269C27.9931 31.2211 27.8815 31.2959 27.7586 31.3468C27.6358 31.3977 27.5041 31.4238 27.3711 31.4237Z" fill="white"/>
<path d="M35.7054 20.5938C34.1496 20.5938 32.3882 19.8398 31.0103 19.0823C30.1787 18.6261 29.3796 18.113 28.6189 17.5465C28.4415 17.4089 28.2234 17.3343 27.9989 17.3343C27.7744 17.3343 27.5563 17.4089 27.3789 17.5465C27.3399 17.5769 23.4031 20.593 20.2915 20.593C20.0231 20.5932 19.7658 20.7 19.576 20.8899C19.3863 21.0797 19.2798 21.3372 19.2798 21.6056V29.867C19.2798 31.9052 20.1362 33.7543 21.5705 34.8129C22.7914 35.7153 26.2778 38.0173 26.6717 38.2768L27.4414 38.7844C27.6068 38.8931 27.8005 38.9511 27.9985 38.9511C28.1964 38.9511 28.3901 38.8931 28.5555 38.7844L29.326 38.2768C29.72 38.0165 33.2064 35.7153 34.4273 34.8129C35.8616 33.7534 36.718 31.9044 36.718 29.867V21.6056C36.7178 21.3372 36.611 21.0798 36.4211 20.8901C36.2312 20.7004 35.9738 20.5938 35.7054 20.5938ZM34.6937 29.8679C34.6937 31.2666 34.1444 32.5066 33.2246 33.1869C32.0255 34.0728 28.3655 36.4841 28.2119 36.5882L27.9985 36.7288L27.7859 36.5882C27.6305 36.4858 23.9723 34.0719 22.7731 33.1869C21.8534 32.5066 21.3041 31.2666 21.3041 29.8679V22.5453C24.0183 22.1705 26.7906 20.4342 27.9985 19.5951C29.2063 20.4325 31.9795 22.1687 34.6937 22.5453V29.8679Z" fill="#26245F"/>
</svg>
