<svg width="56" height="56" viewBox="0 0 56 56" fill="none" xmlns="http://www.w3.org/2000/svg">
<path d="M27.9991 55.9999C21.5213 55.9997 15.2439 53.7534 10.2365 49.6438C5.22916 45.5342 1.80165 39.8155 0.537976 33.4621C-0.725698 27.1087 0.252647 20.5137 3.30632 14.8007C6.35999 9.08778 11.3001 4.61039 17.2848 2.13141C23.2696 -0.347576 29.9287 -0.674769 36.1276 1.20558C42.3266 3.08593 47.6818 7.05749 51.2808 12.4436C54.8798 17.8296 56.5 24.297 55.8652 30.7436C55.2304 37.1903 52.3801 43.2175 47.7997 47.7982C45.2054 50.4065 42.1197 52.4744 38.7209 53.8823C35.3221 55.2901 31.6779 56.0099 27.9991 55.9999ZM27.9991 2.02151C13.675 2.02151 2.02184 13.6747 2.02184 27.9988C2.02184 42.3229 13.675 53.976 27.9991 53.976C42.3232 53.976 53.9764 42.3229 53.9764 27.9988C53.9764 13.6747 42.3232 2.02151 27.9991 2.02151Z" fill="#C8C8D0"/>
<path d="M37.1632 50.3181C36.9737 50.3179 36.7881 50.2646 36.6275 50.1641C36.4669 50.0636 36.3377 49.9201 36.2546 49.7498C36.1716 49.5795 36.138 49.3893 36.1577 49.2009C36.1774 49.0124 36.2497 48.8333 36.3662 48.6839C40.2462 43.701 42.4732 36.1676 42.4732 28.0001C42.4732 20.0133 40.3241 12.5755 36.5775 7.5914C36.4162 7.37689 36.3468 7.10708 36.3844 6.84136C36.4221 6.57563 36.5637 6.33574 36.7783 6.17446C36.9928 6.01318 37.2626 5.94372 37.5283 5.98137C37.794 6.01901 38.0339 6.16067 38.1952 6.37519C42.2004 11.7017 44.497 19.5835 44.497 28.0001C44.497 36.6045 42.1154 44.5972 37.9626 49.9284C37.8679 50.05 37.7466 50.1484 37.608 50.2159C37.4695 50.2834 37.3173 50.3184 37.1632 50.3181Z" fill="#C8C8D0"/>
<path d="M18.8333 50.3181C18.679 50.3182 18.5268 50.283 18.3883 50.2153C18.2497 50.1475 18.1285 50.049 18.0339 49.9273C13.8822 44.596 11.5006 36.6033 11.5006 28.0001C11.5006 19.5834 13.7972 11.7052 17.8024 6.37519C17.8823 6.26897 17.9823 6.17952 18.0967 6.11195C18.2111 6.04438 18.3378 6 18.4693 5.98136C18.6009 5.96272 18.7349 5.97018 18.8635 6.00331C18.9922 6.03645 19.1132 6.0946 19.2194 6.17446C19.3256 6.25432 19.415 6.35431 19.4826 6.46874C19.5502 6.58317 19.5945 6.70978 19.6132 6.84135C19.6318 6.97293 19.6244 7.10689 19.5912 7.23558C19.5581 7.36427 19.5 7.48518 19.4201 7.5914C15.6735 12.5743 13.5244 20.0133 13.5244 28.0001C13.5244 36.1617 15.7502 43.7045 19.6315 48.6839C19.7476 48.8335 19.8194 49.0127 19.8388 49.201C19.8583 49.3894 19.8245 49.5795 19.7414 49.7496C19.6583 49.9198 19.5291 50.0632 19.3686 50.1637C19.2081 50.2642 19.0226 50.3177 18.8333 50.3181Z" fill="#C8C8D0"/>
<path d="M27.9991 52.4556C27.7308 52.4556 27.4734 52.349 27.2836 52.1592C27.0938 51.9694 26.9872 51.7121 26.9872 51.4437V41.5097C26.9872 41.2414 27.0938 40.984 27.2836 40.7942C27.4734 40.6044 27.7308 40.4978 27.9991 40.4978C28.2675 40.4978 28.5249 40.6044 28.7147 40.7942C28.9045 40.984 29.0111 41.2414 29.0111 41.5097V51.4437C29.0111 51.7121 28.9045 51.9694 28.7147 52.1592C28.5249 52.349 28.2675 52.4556 27.9991 52.4556Z" fill="#C8C8D0"/>
<path d="M27.9991 15.4993C27.7308 15.4993 27.4734 15.3927 27.2836 15.2029C27.0938 15.0131 26.9872 14.7557 26.9872 14.4873V4.54868C26.9872 4.2803 27.0938 4.0229 27.2836 3.83313C27.4734 3.64335 27.7308 3.53674 27.9991 3.53674C28.2675 3.53674 28.5249 3.64335 28.7147 3.83313C28.9045 4.0229 29.0111 4.2803 29.0111 4.54868V14.4826C29.0117 14.6159 28.986 14.748 28.9354 14.8713C28.8848 14.9946 28.8104 15.1068 28.7164 15.2012C28.6223 15.2957 28.5106 15.3706 28.3875 15.4218C28.2644 15.4729 28.1324 15.4993 27.9991 15.4993Z" fill="#C8C8D0"/>
<path d="M51.4498 29.0113H39.492C39.2236 29.0113 38.9662 28.9047 38.7764 28.7149C38.5866 28.5251 38.48 28.2677 38.48 27.9994C38.48 27.731 38.5866 27.4736 38.7764 27.2838C38.9662 27.094 39.2236 26.9874 39.492 26.9874H51.4498C51.7182 26.9874 51.9756 27.094 52.1653 27.2838C52.3551 27.4736 52.4617 27.731 52.4617 27.9994C52.4617 28.2677 52.3551 28.5251 52.1653 28.7149C51.9756 28.9047 51.7182 29.0113 51.4498 29.0113Z" fill="#C8C8D0"/>
<path d="M16.5082 29.0113H4.54923C4.28085 29.0113 4.02346 28.9047 3.83369 28.7149C3.64391 28.5251 3.53729 28.2677 3.53729 27.9994C3.53729 27.731 3.64391 27.4736 3.83369 27.2838C4.02346 27.094 4.28085 26.9874 4.54923 26.9874H16.5082C16.7766 26.9874 17.034 27.094 17.2238 27.2838C17.4135 27.4736 17.5202 27.731 17.5202 27.9994C17.5202 28.2677 17.4135 28.5251 17.2238 28.7149C17.034 28.9047 16.7766 29.0113 16.5082 29.0113Z" fill="#C8C8D0"/>
<path d="M45.6814 13.5262H10.3169C10.0485 13.5262 9.79115 13.4196 9.60137 13.2298C9.4116 13.04 9.30499 12.7826 9.30499 12.5143C9.30499 12.2459 9.4116 11.9885 9.60137 11.7987C9.79115 11.6089 10.0485 11.5023 10.3169 11.5023H45.6814C45.9498 11.5023 46.2072 11.6089 46.397 11.7987C46.5867 11.9885 46.6934 12.2459 46.6934 12.5143C46.6934 12.7826 46.5867 13.04 46.397 13.2298C46.2072 13.4196 45.9498 13.5262 45.6814 13.5262Z" fill="#C8C8D0"/>
<path d="M45.6805 44.4941H10.3172C10.0547 44.4852 9.80585 44.3746 9.62329 44.1857C9.44072 43.9968 9.33868 43.7443 9.33868 43.4816C9.33868 43.2189 9.44072 42.9665 9.62329 42.7776C9.80585 42.5887 10.0547 42.4781 10.3172 42.4691H45.6805C45.9431 42.4781 46.1919 42.5887 46.3744 42.7776C46.557 42.9665 46.6591 43.2189 46.6591 43.4816C46.6591 43.7443 46.557 43.9968 46.3744 44.1857C46.1919 44.3746 45.9431 44.4852 45.6805 44.4941Z" fill="#C8C8D0"/>
<path d="M27.3704 31.4246C27.2375 31.4246 27.1059 31.3985 26.9831 31.3476C26.8604 31.2968 26.7488 31.2222 26.6548 31.1282L23.939 28.4124C23.8451 28.3185 23.7705 28.2069 23.7197 28.0841C23.6688 27.9614 23.6426 27.8298 23.6426 27.6969C23.6426 27.564 23.6688 27.4324 23.7197 27.3096C23.7705 27.1869 23.8451 27.0753 23.939 26.9813C24.033 26.8874 24.1446 26.8128 24.2673 26.762C24.3901 26.7111 24.5217 26.6849 24.6546 26.6849C24.7875 26.6849 24.9191 26.7111 25.0418 26.762C25.1646 26.8128 25.2762 26.8874 25.3701 26.9813L27.3775 28.9887L31.1076 25.2574C31.2974 25.0674 31.5548 24.9607 31.8233 24.9606C32.0918 24.9605 32.3493 25.067 32.5393 25.2568C32.7292 25.4466 32.836 25.704 32.8361 25.9725C32.8362 26.241 32.7296 26.4986 32.5399 26.6885L28.093 31.1353C27.9976 31.2289 27.8847 31.3026 27.7606 31.3522C27.6366 31.4019 27.504 31.4265 27.3704 31.4246Z" fill="#C8C8D0"/>
<path d="M27.9995 38.9525C27.8012 38.9529 27.6073 38.8945 27.4422 38.7848L26.6723 38.2771C26.2779 38.0185 22.7911 35.716 21.5701 34.8139C20.1366 33.7512 19.2806 31.9044 19.2806 29.8675V21.6021C19.2804 21.4691 19.3065 21.3375 19.3573 21.2146C19.4081 21.0918 19.4826 20.9802 19.5766 20.8862C19.6706 20.7922 19.7822 20.7176 19.9051 20.6668C20.0279 20.616 20.1596 20.59 20.2925 20.5901C23.4039 20.5901 27.3406 17.5732 27.3772 17.5425C27.5547 17.4052 27.7727 17.3307 27.9971 17.3307C28.2215 17.3307 28.4396 17.4052 28.617 17.5425C28.656 17.5732 32.5927 20.5901 35.7017 20.5901C35.9701 20.5901 36.2275 20.6967 36.4173 20.8865C36.6071 21.0763 36.7137 21.3337 36.7137 21.6021V29.8675C36.7137 31.9044 35.8576 33.7535 34.4229 34.8139C33.202 35.7172 29.7152 38.0185 29.322 38.2771L28.5509 38.7848C28.3875 38.8934 28.1957 38.9517 27.9995 38.9525ZM21.3044 22.5396V29.8605C21.3044 31.2585 21.8535 32.4995 22.7733 33.1785C23.9718 34.0652 27.6311 36.4776 27.7858 36.5803L27.9995 36.7208L28.212 36.5803C28.3679 36.4776 32.026 34.0652 33.2245 33.1785C34.1455 32.4995 34.6945 31.2585 34.6945 29.8605V22.5396C31.9787 22.1641 29.2074 20.4284 27.9995 19.5876C26.7915 20.4331 24.0191 22.1688 21.3044 22.5443V22.5396Z" fill="#C8C8D0"/>
</svg>
