<svg width="20" height="20" viewBox="0 0 20 20" fill="none" xmlns="http://www.w3.org/2000/svg">
<path d="M19.5758 1.52209L15.2008 0.03375C15.0708 -0.01125 14.9292 -0.01125 14.7992 0.03375L10.4242 1.52209C10.17 1.60792 10 1.84626 10 2.11376V5.46209C10 9.54876 14.5617 11.5354 14.7559 11.6179C14.9126 11.6838 15.0874 11.6838 15.2441 11.6179C15.4383 11.5354 20 9.54876 20 5.46209V2.11376C20 1.84626 19.83 1.60792 19.5758 1.52209ZM17.7383 4.68209L15.4467 7.59876C15.155 7.97126 14.6083 8.02542 14.25 7.71709L12.7917 6.46709C12.4417 6.16792 12.4008 5.64126 12.7017 5.29209C13.0008 4.94292 13.5274 4.90292 13.8758 5.20209L14.6741 5.88626L16.4283 3.65376C16.7126 3.29209 17.2358 3.22792 17.5983 3.51376C17.96 3.79626 18.0233 4.32042 17.7383 4.68209Z" fill="#26245F"/>
<path d="M9.16667 8.75801V15.833C9.16667 16.2913 8.79167 16.6663 8.33333 16.6663H2.5C2.04167 16.6663 1.66667 16.2913 1.66667 15.833V8.33301C1.66667 7.87467 2.04167 7.49967 2.5 7.49967H8.33333C8.45 7.49967 8.56667 7.52467 8.66667 7.56634C8.49167 7.02467 8.375 6.44967 8.34167 5.83301H2.5C1.125 5.83301 0 6.95801 0 8.33301V15.833C0 17.208 1.125 18.333 2.5 18.333H8.33333C9.70833 18.333 10.8333 17.208 10.8333 15.833V10.958C10.2 10.333 9.60833 9.59967 9.16667 8.75801Z" fill="#26245F"/>
<path d="M7.08333 7.08333C6.6225 7.08333 6.25 6.71 6.25 6.25V3.33333C6.25 2.87333 6.6225 2.5 7.08333 2.5C7.54417 2.5 7.91667 2.87333 7.91667 3.33333V6.25C7.91667 6.71 7.54417 7.08333 7.08333 7.08333Z" fill="#26245F"/>
<path d="M3.95833 7.08333C3.4975 7.08333 3.125 6.71 3.125 6.25V3.33333C3.125 2.87333 3.4975 2.5 3.95833 2.5C4.41917 2.5 4.79167 2.87333 4.79167 3.33333V6.25C4.79167 6.71 4.41917 7.08333 3.95833 7.08333Z" fill="#26245F"/>
<path d="M8.33317 2.5V4.16667H2.49984C2.0415 4.16667 1.6665 3.79167 1.6665 3.33333C1.6665 2.875 2.0415 2.5 2.49984 2.5H8.33317Z" fill="#26245F"/>
<path d="M2.49984 19.9997C2.039 19.9997 1.6665 19.6263 1.6665 19.1663V17.9163C1.6665 17.4563 2.039 17.083 2.49984 17.083C2.96067 17.083 3.33317 17.4563 3.33317 17.9163V19.1663C3.33317 19.6263 2.96067 19.9997 2.49984 19.9997Z" fill="#26245F"/>
<path d="M8.33333 19.9997C7.8725 19.9997 7.5 19.6263 7.5 19.1663V17.9163C7.5 17.4563 7.8725 17.083 8.33333 17.083C8.79417 17.083 9.16667 17.4563 9.16667 17.9163V19.1663C9.16667 19.6263 8.79417 19.9997 8.33333 19.9997Z" fill="#26245F"/>
<path d="M6.04183 14.9997H4.79183C3.98766 14.9997 3.3335 14.3456 3.3335 13.5413V12.2913C3.3335 11.4872 3.98766 10.833 4.79183 10.833H6.04183C6.846 10.833 7.50016 11.4872 7.50016 12.2913V13.5413C7.50016 14.3456 6.846 14.9997 6.04183 14.9997Z" fill="#26245F"/>
</svg>
