<svg width="24" height="24" viewBox="0 0 24 24" fill="none" xmlns="http://www.w3.org/2000/svg">
<path d="M20.4749 3.52576C20.1374 3.18827 19.5375 2.98578 18.9001 3.00078C18.2777 3.00828 17.7378 3.20327 17.4229 3.53326L14.1609 7.0056C14.0559 7.1181 13.8984 7.17059 13.7485 7.1331L4.62991 5.20568C4.28497 5.13069 3.93253 5.22818 3.68507 5.48317C3.43011 5.73816 3.31013 6.09814 3.34762 6.45813C3.39262 6.82561 3.60258 7.1406 3.93253 7.33559L10.179 10.6429C10.2915 10.7104 10.3665 10.8229 10.3815 10.9579C10.404 11.0854 10.359 11.2129 10.2765 11.3104L6.5496 15.3228L4.63741 14.4828C4.19498 14.2878 3.67757 14.3853 3.33263 14.7303C3.10016 14.9628 2.98018 15.2853 3.00268 15.6077C3.03267 15.9377 3.19765 16.2377 3.4601 16.4252L5.81472 18.1576C5.88221 18.2101 5.9422 18.2701 5.99469 18.3451L7.59943 20.5425C7.7869 20.805 8.08685 20.97 8.4168 21H8.49929C8.79924 21 9.07669 20.88 9.29416 20.67C9.6391 20.325 9.73659 19.8151 9.54162 19.3651L8.70175 17.4452L10.509 15.7652C10.5015 15.6527 10.5015 15.5327 10.5015 15.4127V12.4054C10.5015 11.5204 11.0639 10.7329 11.9037 10.4479L15.8331 9.11301C16.2606 8.96302 16.7405 8.96302 17.1679 9.11301L17.6103 9.263L20.4674 6.57812C20.7973 6.26313 20.9923 5.73066 20.9998 5.10069C21.0073 4.45572 20.8123 3.86324 20.4749 3.52576Z" fill="#26245F"/>
<path d="M20.6182 11.435L16.6807 10.0318C16.5637 9.98939 16.4363 9.98939 16.3193 10.0318L12.3818 11.435C12.153 11.516 12 11.7399 12 11.9929V15.1497C12 19.0026 16.1055 20.8757 16.2803 20.9534C16.4213 21.0155 16.5787 21.0155 16.7197 20.9534C16.8945 20.8748 21 19.0026 21 15.1497V11.9929C21 11.7399 20.847 11.516 20.6182 11.435ZM18.9645 14.4143L16.902 17.1642C16.6395 17.5153 16.1475 17.5664 15.8243 17.2757L14.5117 16.0972C14.1967 15.8151 14.16 15.3186 14.4308 14.9894C14.7 14.6602 15.174 14.6225 15.4875 14.9046L16.206 15.5496L17.7847 13.4448C18.0405 13.1038 18.5115 13.0433 18.8378 13.3128C19.164 13.5791 19.221 14.0733 18.9645 14.4143Z" fill="#26245F"/>
</svg>
