<svg width="23" height="22" viewBox="0 0 23 22" fill="none" xmlns="http://www.w3.org/2000/svg">
<path fill-rule="evenodd" clip-rule="evenodd" d="M9.75904 10.3047C9.95413 10.3047 10.1412 10.3822 10.2792 10.5201C10.4171 10.6581 10.4946 10.8452 10.4946 11.0403V11.7759H11.2302C11.4253 11.7759 11.6124 11.8534 11.7504 11.9913C11.8883 12.1293 11.9658 12.3164 11.9658 12.5115C11.9658 12.7066 11.8883 12.8937 11.7504 13.0316C11.6124 13.1696 11.4253 13.2471 11.2302 13.2471H10.4946V13.9827C10.4946 14.1778 10.4171 14.3649 10.2792 14.5028C10.1412 14.6408 9.95413 14.7183 9.75904 14.7183C9.56394 14.7183 9.37684 14.6408 9.23889 14.5028C9.10094 14.3649 9.02344 14.1778 9.02344 13.9827V13.2471H8.28784C8.09275 13.2471 7.90565 13.1696 7.7677 13.0316C7.62975 12.8937 7.55225 12.7066 7.55225 12.5115C7.55225 12.3164 7.62975 12.1293 7.7677 11.9913C7.90565 11.8534 8.09275 11.7759 8.28784 11.7759H9.02344V11.0403C9.02344 10.8452 9.10094 10.6581 9.23889 10.5201C9.37684 10.3822 9.56394 10.3047 9.75904 10.3047Z" fill="#26245F"/>
<path fill-rule="evenodd" clip-rule="evenodd" d="M18.4193 5.81228C17.5955 4.97861 16.4578 4.75302 14.4177 4.68437V4.6059C14.4362 3.87266 14.41 3.13897 14.3392 2.40892C14.3173 1.79941 14.0654 1.22082 13.6341 0.789555C13.2028 0.358289 12.6243 0.106353 12.0147 0.0844338C11.301 0.0156043 10.5837 -0.0105967 9.86681 0.00597021H9.75892C9.02567 -0.0129883 8.29196 0.0132158 7.56194 0.0844338C6.9522 0.108459 6.37377 0.360784 5.94138 0.791356C5.50899 1.22193 5.25423 1.79929 5.22764 2.40892C5.15684 3.13897 5.13064 3.87266 5.14918 4.6059V4.68437C3.18759 4.75302 1.98121 4.97861 1.15734 5.81228C3.5076e-07 6.95981 0 8.81352 0 12.5111C0 16.2087 3.5076e-07 18.0526 1.15734 19.2001C2.31468 20.3477 4.14877 20.3575 7.84637 20.3575H11.7695C13.3388 20.3575 14.5746 20.3575 15.5554 20.2692C14.877 19.367 14.5088 18.2693 14.506 17.1405V14.051C14.5034 13.9333 14.538 13.8177 14.6049 13.7209C14.6719 13.624 14.7677 13.5507 14.8787 13.5115L18.694 12.0894C18.8083 12.0498 18.9327 12.0498 19.0471 12.0894L19.5669 12.2757C19.5669 8.74486 19.5473 6.9402 18.4193 5.81228ZM6.6498 2.60508C6.65576 2.32063 6.75969 2.04696 6.94404 1.83025C7.16309 1.64992 7.43532 1.54654 7.71886 1.53601C8.40057 1.47916 9.08488 1.45951 9.76873 1.47716C10.4558 1.45937 11.1434 1.47902 11.8284 1.53601C12.1119 1.54654 12.3842 1.64992 12.6032 1.83025C12.7876 2.04696 12.8915 2.32063 12.8975 2.60508C12.9545 3.29006 12.9741 3.97764 12.9563 4.66475H6.58114C6.56219 3.97763 6.58183 3.28999 6.63999 2.60508H6.6498ZM12.5346 15.2868C11.8932 15.9289 11.0489 16.3288 10.1457 16.4183C9.24255 16.5078 8.33628 16.2813 7.58132 15.7775C6.82636 15.2738 6.26942 14.5238 6.0054 13.6555C5.74138 12.7871 5.7866 11.8541 6.13336 11.0153C6.48013 10.1765 7.10698 9.48396 7.90712 9.05556C8.70726 8.62716 9.63119 8.48943 10.5215 8.66585C11.4118 8.84227 12.2134 9.32191 12.7897 10.0231C13.366 10.7242 13.6814 11.6035 13.6821 12.5111C13.6825 13.0265 13.5814 13.5369 13.3845 14.0131C13.1876 14.4894 12.8988 14.9222 12.5346 15.2868Z" fill="#26245F"/>
<path d="M22.2152 14.2475L19.1061 13.1392C19.0136 13.1099 18.9142 13.1099 18.8217 13.1392L15.7518 14.2475C15.6641 14.283 15.5891 14.344 15.5366 14.4228C15.4841 14.5015 15.4566 14.5942 15.4575 14.6888V17.1801C15.4575 20.2205 18.6942 21.6917 18.8315 21.7506C18.8855 21.7746 18.944 21.7871 19.0031 21.7871C19.0623 21.7871 19.1207 21.7746 19.1748 21.7506C19.3121 21.6917 22.5487 20.2205 22.5487 17.1801V14.6888C22.5468 14.5895 22.5135 14.4933 22.4536 14.414C22.3937 14.3347 22.3103 14.2764 22.2152 14.2475ZM20.9108 16.6014L19.2826 18.769C19.2349 18.8341 19.1739 18.8885 19.1038 18.9287C19.0337 18.9689 18.956 18.994 18.8756 19.0023C18.7952 19.0106 18.714 19.002 18.6371 18.977C18.5602 18.952 18.4895 18.9112 18.4294 18.8572L17.4486 17.9255C17.3257 17.8176 17.2497 17.666 17.2369 17.503C17.2241 17.3399 17.2754 17.1783 17.3799 17.0526C17.4291 16.9918 17.4901 16.9417 17.5592 16.9051C17.6284 16.8686 17.7042 16.8465 17.7821 16.8401C17.86 16.8337 17.9384 16.8431 18.0126 16.8678C18.0867 16.8925 18.1551 16.932 18.2136 16.9839L18.7824 17.4939L20.0281 15.8364C20.0734 15.773 20.1313 15.7197 20.1982 15.6797C20.265 15.6397 20.3393 15.6138 20.4166 15.6037C20.4938 15.5936 20.5723 15.5994 20.6472 15.6209C20.7221 15.6424 20.7918 15.679 20.8519 15.7285C20.9712 15.839 21.0438 15.991 21.0547 16.1532C21.0657 16.3155 21.0142 16.4758 20.9108 16.6014Z" fill="#26245F"/>
</svg>
