<svg width="24" height="24" viewBox="0 0 24 24" fill="none" xmlns="http://www.w3.org/2000/svg">
<path d="M14.4473 3C13.0945 3 11.8509 3.58667 11 4.57714C10.1491 3.58667 8.90545 3 7.55273 3C5.04364 3 3 5.04952 3 7.57143C3 14.0248 10.3164 18.6952 10.6291 18.8933C10.7382 18.9619 10.8691 19 11 19C11.0655 19 11.1236 18.9924 11.1891 18.9695C10.6364 18.0095 10.2727 16.8895 10.2727 15.6095V12.5543C10.2727 11.6552 10.8182 10.8552 11.6327 10.5657L15.4436 9.20952C15.8582 9.05714 16.3236 9.05714 16.7382 9.20952L18.6873 9.90286C18.8836 9.15619 19 8.37905 19 7.57143C19 5.04952 16.9564 3 14.4473 3Z" fill="#26245F"/>
<path d="M21.5334 11.696L16.7209 10.0376C16.5779 9.98746 16.4221 9.98746 16.2791 10.0376L11.4666 11.696C11.187 11.7916 11 12.0562 11 12.3552V16.086C11 20.6395 16.0178 22.8531 16.2315 22.9449C16.4038 23.0184 16.5962 23.0184 16.7685 22.9449C16.9822 22.8521 22 20.6395 22 16.086V12.3552C22 12.0562 21.813 11.7916 21.5334 11.696ZM19.5122 15.2169L16.9913 18.4667C16.6705 18.8817 16.0692 18.9421 15.6741 18.5986L14.0699 17.2058C13.6849 16.8724 13.64 16.2856 13.971 15.8966C14.3 15.5075 14.8793 15.4629 15.2625 15.7963L16.1407 16.5586L18.0702 14.0711C18.3828 13.6682 18.9585 13.5966 19.3573 13.9151C19.756 14.2298 19.8257 14.8139 19.5122 15.2169Z" fill="#26245F"/>
</svg>
